<svg version="1.1" id="Layer_1" xmlns="http://www.w3.org/2000/svg" xmlns:xlink="http://www.w3.org/1999/xlink" x="0px" y="0px"
	 width="100%" viewBox="0 0 320 258" enable-background="new 0 0 320 258" xml:space="preserve">
<path fill="#FDFDFD" opacity="1.000000" stroke="none" 
	d="
M0.999999,54.000000 
	C1.000000,36.441742 1.000000,18.883484 1.000000,1.000000 
	C7.016512,1.000000 13.038880,1.000000 19.558865,1.351347 
	C23.806339,5.948163 27.556202,10.193632 31.956379,15.175364 
	C33.418167,12.682052 34.197170,11.353337 34.841358,9.719587 
	C32.471027,6.609701 30.235514,3.804850 28.000000,1.000000 
	C36.020901,1.000000 44.041798,1.000000 52.496696,1.347193 
	C50.951355,4.452147 48.972012,7.209909 46.731697,10.191436 
	C45.733688,13.604585 47.718800,15.092340 49.806721,13.263502 
	C53.944103,9.639514 57.313286,5.138500 61.000000,1.000000 
	C133.020889,1.000000 205.041794,1.000000 277.561157,1.345147 
	C280.787415,4.698983 283.384857,7.841040 286.283997,10.674372 
	C288.624542,12.961768 290.366547,12.210119 290.997009,8.634312 
	C289.662689,5.846104 288.331360,3.423051 287.000000,0.999999 
	C294.354248,1.000000 301.708496,1.000000 309.497498,1.344819 
	C308.619263,3.782190 307.306244,5.874741 305.720184,8.216681 
	C305.447174,9.911378 305.447174,11.356688 305.447174,12.802000 
	C306.031708,13.104239 306.616211,13.406478 307.200745,13.708717 
	C310.800476,9.472478 314.400238,5.236239 318.000000,1.000000 
	C318.988922,1.000000 319.977875,1.000000 321.000000,1.000000 
	C321.000000,13.020878 321.000000,25.041780 320.636230,37.526443 
	C316.847931,35.031750 313.362946,32.139809 310.016113,29.095943 
	C306.746246,26.122047 305.004852,26.285360 303.057587,30.345802 
	C306.452179,34.008263 309.712738,37.431072 313.177887,40.632427 
	C315.642548,42.909439 318.382782,44.888149 321.000000,46.999996 
	C321.000000,114.687561 321.000000,182.375122 320.654846,250.562149 
	C317.873108,253.707748 315.436554,256.353882 313.000000,259.000000 
	C302.979095,259.000000 292.958221,259.000000 282.436096,258.656006 
	C279.967987,255.623520 278.001068,252.935043 276.348083,250.204910 
	C277.444092,249.942764 278.226166,249.722275 279.433807,249.428482 
	C281.586426,249.302597 283.313507,249.250000 285.187988,249.427124 
	C285.915253,249.200790 286.495117,248.744766 287.371033,248.108261 
	C289.119415,247.325851 290.571747,246.723923 292.194672,246.345352 
	C292.905975,246.033936 293.446716,245.499161 294.218384,244.725052 
	C295.505005,243.431686 296.508850,242.319077 297.624542,241.333023 
	C305.553833,234.325043 304.858521,215.995285 298.050812,208.961151 
	C284.515137,194.975311 263.710815,197.521194 252.744919,215.040161 
	C252.226212,216.032700 252.031036,216.996338 251.875580,218.362640 
	C251.776001,219.825943 251.636703,220.886566 251.173004,222.051300 
	C251.027252,224.124496 251.205887,226.093613 251.559952,228.428070 
	C251.803970,229.867950 251.872574,230.942474 251.675980,232.206360 
	C251.941208,233.263702 252.471634,234.131699 253.168991,235.172241 
	C253.434586,235.681335 253.651321,235.901733 254.039642,236.332047 
	C254.386383,237.468323 254.679611,238.278549 255.074539,239.407867 
	C257.103271,241.490555 259.030304,243.254181 261.272919,245.117569 
	C262.389099,245.486008 263.189697,245.754669 264.201172,246.241608 
	C265.272308,246.980606 266.132660,247.501343 267.015778,248.374603 
	C269.026123,251.153824 271.013672,253.580490 273.106750,256.228943 
	C273.413177,256.726990 273.678162,256.910706 274.033630,257.334808 
	C274.039948,258.111786 274.019958,258.555908 274.000000,259.000000 
	C204.312439,259.000000 134.624878,259.000000 64.501617,258.656189 
	C65.826782,256.039490 67.587654,253.766647 69.348526,251.493805 
	C68.870445,251.099533 68.392357,250.705276 67.914276,250.311005 
	C65.609512,253.207336 63.304752,256.103668 60.999996,259.000000 
	C49.312439,259.000000 37.624878,259.000000 25.435635,258.655243 
	C17.958860,251.044983 11.007620,243.756210 3.973511,236.548279 
	C3.232056,235.788498 2.002894,235.504654 1.000002,235.000000 
	C1.000000,177.645767 1.000000,120.291542 1.365387,62.473610 
	C3.342283,60.980659 5.217127,60.209850 6.522293,58.879959 
	C14.610612,50.638451 22.572962,42.273270 30.570147,33.942444 
	C31.254965,33.229057 32.185902,32.571049 32.489098,31.707132 
	C33.301682,29.391794 33.874245,26.957582 29.707157,27.149162 
	C23.613930,33.134182 17.931749,39.090221 11.990419,44.775444 
	C8.542087,48.075127 4.677353,50.939651 0.999999,54.000000 
M242.049011,215.418503 
	C242.055588,215.052734 242.062164,214.686951 242.492447,213.794907 
	C244.088821,212.214706 245.685181,210.634521 247.868500,208.986145 
	C247.530594,208.348190 247.192673,207.710220 246.271286,206.843460 
	C245.185486,205.876144 244.099701,204.908829 242.868271,203.206360 
	C242.023254,202.960297 241.178253,202.714233 239.834442,202.494415 
	C239.482742,202.445007 239.206131,202.274078 238.998367,201.398590 
	C238.337601,201.240173 237.676819,201.081772 236.187408,200.961884 
	C234.816467,200.837341 233.445526,200.712799 231.830978,199.881607 
	C229.246658,199.607101 226.662338,199.332581 223.469925,198.759140 
	C213.037918,188.452362 202.605896,178.145584 191.580368,167.252396 
	C190.481567,169.401123 189.785767,170.761765 189.195084,172.754272 
	C197.141281,180.667007 205.159317,188.509995 212.970154,196.554169 
	C214.447769,198.075912 215.102341,200.396820 215.624084,202.750916 
	C207.922958,206.835022 202.954056,213.172180 202.232300,221.816101 
	C200.569763,241.726746 215.947617,252.470184 235.344635,248.951477 
	C240.055206,248.096970 244.724518,245.887283 247.036163,241.620987 
	C244.895813,239.106812 243.010391,236.892075 240.960892,234.484619 
	C239.500565,235.697433 238.453461,236.735519 237.249313,237.537949 
	C232.095932,240.972107 226.547791,241.031448 221.266006,238.316483 
	C215.146927,235.171127 212.271225,228.427170 213.583252,221.971115 
	C215.125076,214.384399 218.755920,211.477448 228.168686,211.169373 
	C229.091690,212.020584 230.014679,212.871796 231.330414,214.085220 
	C231.736328,212.626480 231.985001,211.732849 232.973251,210.787170 
	C234.994049,211.833847 237.014847,212.880524 238.997070,214.547165 
	C239.349121,215.021072 239.701157,215.494965 240.047791,216.685547 
	C240.539658,217.738342 241.031540,218.791153 241.523422,219.843948 
	C241.875000,219.703751 242.226562,219.563553 242.578140,219.423355 
	C242.359741,218.268356 242.141357,217.113358 242.049011,215.418503 
M232.780869,95.439034 
	C232.486633,93.646271 232.192413,91.853508 232.226883,89.466591 
	C243.949036,77.684738 255.665405,65.897118 267.395508,54.123177 
	C274.551788,46.940125 281.750946,39.799625 288.878296,32.588074 
	C290.261200,31.188818 292.671509,29.578892 288.551361,27.428488 
	C286.973633,28.027599 284.976166,28.204062 283.882355,29.290405 
	C271.307556,41.779369 258.913116,54.449669 246.377441,66.978416 
	C240.187302,73.165131 233.803925,79.158508 226.902481,84.979675 
	C225.651291,82.865753 224.400101,80.751831 223.093948,77.935211 
	C221.879776,75.684570 220.665588,73.433937 219.529938,70.503929 
	C217.442749,66.749306 215.355576,62.994678 213.425095,58.633766 
	C212.741577,57.412392 212.058060,56.191017 211.398636,54.201363 
	C209.270874,50.128891 207.143097,46.056416 205.048630,41.270851 
	C203.462112,38.478897 201.875580,35.686943 200.318863,32.150154 
	C197.070633,24.550262 191.597916,18.989412 184.498993,14.932298 
	C166.284424,4.522486 141.009659,13.178002 134.273346,32.461994 
	C132.772614,35.740326 131.271881,39.018658 129.146286,42.677048 
	C128.296616,44.631882 127.446945,46.586716 126.622627,48.578373 
	C126.622627,48.578373 126.613503,48.618610 126.064896,48.883514 
	C125.737862,49.588345 125.410828,50.293171 124.624168,51.524426 
	C124.213448,52.587360 123.802727,53.650295 122.889809,55.139271 
	C121.400497,58.367725 119.911194,61.596176 117.851646,65.316200 
	C116.479065,68.027382 115.106476,70.738571 113.265091,73.842262 
	C112.994553,74.573875 112.724014,75.305489 112.068703,76.596924 
	C112.000389,77.040619 111.932068,77.484322 111.281212,78.194336 
	C110.907837,79.147079 110.534462,80.099831 109.617935,81.341652 
	C109.429985,81.896217 109.242043,82.450790 108.795448,83.270233 
	C108.795448,83.270233 108.825905,83.639191 108.289436,83.913574 
	C107.967857,84.150795 107.646278,84.388008 107.155190,83.864143 
	C106.222839,82.529327 105.463600,81.022186 104.332153,79.885574 
	C87.601013,63.078087 70.835052,46.305126 54.018467,29.583187 
	C52.912712,28.483654 51.330803,27.862970 49.209423,27.036373 
	C45.292988,28.508736 46.631378,30.357872 48.736794,32.431480 
	C55.450089,39.043369 62.174683,45.645977 68.775314,52.369576 
	C79.343239,63.134373 89.777756,74.030312 100.371742,84.769127 
	C101.813789,86.230888 103.850342,87.106155 105.522446,89.001160 
	C104.980843,90.649750 104.439240,92.298332 103.251526,94.262375 
	C102.799469,95.757294 102.347404,97.252220 101.223450,98.990395 
	C100.336327,100.799408 99.449211,102.608414 97.950706,104.776199 
	C96.886513,106.821358 95.719528,108.820206 94.774055,110.918846 
	C85.432571,131.653809 96.709114,155.666428 118.448364,161.388306 
	C119.322510,161.498688 120.196663,161.609070 121.773537,161.964020 
	C122.513588,161.977661 123.253639,161.991287 124.244598,162.400085 
	C124.519867,162.551788 124.772858,162.734360 124.996674,163.718521 
	C125.006042,164.489197 125.015411,165.259872 125.024620,166.869705 
	C125.359108,169.824677 125.120453,173.016083 126.210861,175.659210 
	C127.070862,177.743881 130.085831,180.899155 131.244797,180.554672 
	C135.769241,179.209854 137.457932,182.357666 140.056046,184.478760 
	C141.686417,185.809814 144.230698,187.798279 145.591843,187.314880 
	C148.487549,186.286530 150.921402,183.862427 150.536789,179.779892 
	C151.027420,179.516708 151.518036,179.253525 152.744949,178.995514 
	C154.826004,176.660828 156.907043,174.326141 158.975327,171.255600 
	C158.835175,169.929825 158.695038,168.604034 158.707947,168.726166 
	C162.090668,167.810196 164.826324,167.421204 167.163239,166.241989 
	C167.959106,165.840378 167.751511,163.450150 168.000397,161.230042 
	C167.999451,160.491089 167.998505,159.752151 168.006836,158.267731 
	C169.748062,156.093719 177.587646,155.969025 180.826447,158.848236 
	C180.880920,159.909698 180.935394,160.971146 181.143097,162.827118 
	C181.505737,163.146606 181.865982,163.741928 182.231384,163.745117 
	C190.706894,163.818985 199.183090,163.848938 207.658615,163.796890 
	C208.139572,163.793961 208.615814,163.021240 209.860321,162.353516 
	C210.930878,162.324615 212.001450,162.295715 213.579041,162.738815 
	C216.405991,161.588623 219.232925,160.438431 222.628998,159.010986 
	C223.562927,158.536301 224.496841,158.061600 226.142517,157.796097 
	C226.765350,157.215439 227.388199,156.634781 228.499435,155.599380 
	C231.058243,153.079987 233.617050,150.560593 236.838425,147.920547 
	C237.162262,147.175446 237.486115,146.430328 237.901047,145.301910 
	C237.901047,145.301910 238.203171,145.049011 238.744522,145.004227 
	C238.896347,144.351532 239.048172,143.698837 239.253616,142.364365 
	C239.762238,141.611725 240.270859,140.859070 241.283249,139.854721 
	C241.556244,138.578140 241.829224,137.301544 242.065979,135.229904 
	C242.211411,134.182602 242.356842,133.135284 243.184891,131.773087 
	C242.995651,128.149094 242.806396,124.525108 242.334717,120.150566 
	C242.282227,119.084969 242.229752,118.019363 242.639221,116.552834 
	C242.150635,115.688431 241.662048,114.824028 240.889252,113.487747 
	C240.840652,113.126740 240.792053,112.765732 240.894745,111.741501 
	C240.364166,111.140053 239.833572,110.538597 238.992508,109.322075 
	C238.122055,107.992828 237.251587,106.663574 236.273788,104.704559 
	C235.844513,103.477402 235.415253,102.250252 235.045074,100.315605 
	C234.389587,99.534950 233.734116,98.754295 232.673203,97.922852 
	C232.673203,97.922852 232.264633,97.917419 232.202362,97.262787 
	C232.260406,96.828545 232.318451,96.394310 232.780869,95.439034 
M92.680870,224.632889 
	C92.427933,223.750168 92.174995,222.867462 92.162056,221.739868 
	C92.387764,221.482574 92.613480,221.225296 93.545609,220.924866 
	C98.578178,217.084351 98.826889,215.662750 94.612526,211.450943 
	C94.207275,206.725342 90.983398,204.320480 86.915176,201.836304 
	C85.278580,201.541855 83.641975,201.247406 81.067406,200.965897 
	C72.107040,201.020187 63.146671,201.074493 53.383526,201.175552 
	C53.002266,202.181854 52.294792,203.186310 52.289120,204.194717 
	C52.214779,217.406296 52.205345,230.618683 52.302483,243.829956 
	C52.310539,244.925797 53.207947,246.015121 53.930397,247.949051 
	C55.221153,248.353592 56.508247,249.094086 57.803257,249.108170 
	C66.207405,249.199677 74.613281,249.133133 83.379776,249.604462 
	C84.282036,249.145279 85.184296,248.686096 86.799072,247.975281 
	C94.809517,246.134277 97.928543,241.379593 97.725952,231.626801 
	C97.225761,231.055756 96.725571,230.484711 95.937263,229.356064 
	C94.880310,228.086227 93.823357,226.816376 92.680870,224.632889 
M105.641449,218.824570 
	C105.656837,228.567352 105.672218,238.310120 105.262924,248.335327 
	C105.832710,248.625671 106.402489,248.916016 107.890411,249.156540 
	C110.681778,249.156540 113.473145,249.156540 116.956520,249.156540 
	C116.956520,240.511429 116.956520,232.247360 117.518990,223.631012 
	C118.111374,223.334335 118.703751,223.037659 119.752327,223.227463 
	C125.489204,230.316681 131.466171,237.228638 136.877869,244.557953 
	C140.434708,249.375137 144.699707,249.924271 150.138824,248.630386 
	C150.138824,232.793747 150.138824,217.058243 150.138824,201.351288 
	C146.359650,201.351288 142.820694,201.351288 138.891846,201.351288 
	C138.891846,210.500549 138.891846,219.226288 138.891846,227.952026 
	C138.394760,228.314804 137.897675,228.677582 137.400589,229.040375 
	C136.917877,228.032516 136.610596,226.881821 135.924698,226.039413 
	C130.371094,219.218735 124.423157,212.691513 119.252129,205.596237 
	C115.535606,200.496735 111.139557,200.253281 105.366196,201.554321 
	C105.366196,206.473999 105.366196,211.275543 104.583061,216.039948 
	C102.326546,217.520630 100.070030,219.001297 97.813515,220.481979 
	C98.148735,220.869125 98.483963,221.256271 98.819183,221.643417 
	C101.004448,220.402008 103.189713,219.160614 105.641449,218.824570 
M171.010757,239.833832 
	C167.813599,238.721710 164.616440,237.609604 161.181641,236.414825 
	C160.729095,237.433380 160.503510,238.431366 159.929672,239.152023 
	C156.541443,243.407135 158.720474,245.637024 162.766251,247.228302 
	C170.133301,250.125900 177.868286,250.309967 185.342789,248.678787 
	C193.837921,246.824890 197.419876,241.656784 197.242767,233.913177 
	C197.100601,227.697556 193.362823,224.088943 184.854721,221.824631 
	C181.012985,220.802200 177.120880,219.868835 173.427307,218.440689 
	C172.005707,217.890991 170.114822,216.048767 170.152481,214.849289 
	C170.202454,213.257980 171.677277,211.426682 173.024109,210.255356 
	C174.013367,209.395004 175.834961,208.980011 177.190887,209.145035 
	C182.037369,209.734879 186.843460,210.656677 192.267059,211.552338 
	C193.146759,209.703201 194.308899,207.260391 195.554367,204.642441 
	C187.035583,198.937286 177.944702,200.085754 169.206436,201.507080 
	C163.164124,202.489868 158.785797,208.902603 158.579956,214.438538 
	C158.357315,220.426117 161.082260,224.416809 167.817993,226.969025 
	C172.423248,228.714005 177.342743,229.638596 181.922241,231.437775 
	C183.591736,232.093689 185.978134,234.488525 185.743591,235.610458 
	C185.371277,237.391174 183.277710,239.736664 181.543045,240.105194 
	C178.441437,240.764160 175.064804,240.128662 171.010757,239.833832 
M42.118191,242.235107 
	C42.118191,228.648209 42.118191,215.061295 42.118191,201.200562 
	C38.455433,201.200562 35.219074,201.200562 31.887486,201.200562 
	C31.887486,217.285645 31.887486,233.119507 31.887486,248.927673 
	C42.075840,249.554016 42.075840,249.554016 42.118191,242.235107 
M245.825943,227.353012 
	C246.738342,229.195862 247.650726,231.038727 248.563110,232.881577 
	C249.156937,232.483917 249.750763,232.086273 250.344604,231.688629 
	C249.054840,230.243958 247.765076,228.799301 245.825943,227.353012 
M95.602341,224.514084 
	C95.602341,224.514084 95.476456,224.590759 95.602341,224.514084 
M103.580292,211.517563 
	C103.580292,211.517563 103.472343,211.580383 103.580292,211.517563 
z"/>
<path fill="#F6F6F6" opacity="1.000000" stroke="none" 
	d="
M0.999999,54.416664 
	C4.677353,50.939651 8.542087,48.075127 11.990419,44.775444 
	C17.931749,39.090221 23.613930,33.134182 29.834364,27.427572 
	C32.682827,29.746647 30.534307,30.947964 29.215071,32.271198 
	C21.170790,40.339848 13.136757,48.419239 5.019156,56.413658 
	C3.908048,57.507908 2.350729,58.149067 1.000000,59.000000 
	C1.000000,57.611111 1.000000,56.222221 0.999999,54.416664 
z"/>
<path fill="#FDFDFD" opacity="1.000000" stroke="none" 
	d="
M16.000000,259.000000 
	C11.075477,259.000000 6.150953,259.000000 1.000000,259.000000 
	C1.000000,254.316681 1.000000,249.630997 1.345761,244.500305 
	C6.461016,249.036865 11.230509,254.018433 16.000000,259.000000 
z"/>
<path fill="#F6F6F6" opacity="1.000000" stroke="none" 
	d="
M1.000002,235.416656 
	C2.002894,235.504654 3.232056,235.788498 3.973511,236.548279 
	C11.007620,243.756210 17.958860,251.044983 24.966976,258.655243 
	C23.611111,259.000000 22.222221,259.000000 20.383507,258.655426 
	C16.256042,254.343048 12.698150,250.254272 8.856934,246.451706 
	C6.458992,244.077850 3.633586,242.135818 1.000001,240.000000 
	C1.000000,238.611115 1.000000,237.222214 1.000002,235.416656 
z"/>
<path fill="#ECECEC" opacity="1.000000" stroke="none" 
	d="
M1.000000,59.375000 
	C2.350729,58.149067 3.908048,57.507908 5.019156,56.413658 
	C13.136757,48.419239 21.170790,40.339848 29.215071,32.271198 
	C30.534307,30.947964 32.682827,29.746647 30.136662,27.284943 
	C33.874245,26.957582 33.301682,29.391794 32.489098,31.707132 
	C32.185902,32.571049 31.254965,33.229057 30.570147,33.942444 
	C22.572962,42.273270 14.610612,50.638451 6.522293,58.879959 
	C5.217127,60.209850 3.342283,60.980659 1.365387,62.004951 
	C1.000000,61.250000 1.000000,60.500000 1.000000,59.375000 
z"/>
<path fill="#F6F6F6" opacity="1.000000" stroke="none" 
	d="
M303.011017,30.011452 
	C305.004852,26.285360 306.746246,26.122047 310.016113,29.095943 
	C313.362946,32.139809 316.847931,35.031750 320.636230,37.995102 
	C321.000000,39.714359 321.000000,41.428715 320.655029,43.540054 
	C316.342438,40.260483 312.463196,36.480942 308.361115,32.961121 
	C306.848053,31.662859 304.809753,30.976761 303.011017,30.011452 
z"/>
<path fill="#ECECEC" opacity="1.000000" stroke="none" 
	d="
M1.000001,240.399994 
	C3.633586,242.135818 6.458992,244.077850 8.856934,246.451706 
	C12.698150,250.254272 16.256042,254.343048 19.966843,258.655426 
	C18.933331,259.000000 17.866661,259.000000 16.399998,259.000000 
	C11.230509,254.018433 6.461016,249.036865 1.345761,244.027649 
	C1.000000,242.933334 1.000000,241.866653 1.000001,240.399994 
z"/>
<path fill="#ECECEC" opacity="1.000000" stroke="none" 
	d="
M303.057587,30.345802 
	C304.809753,30.976761 306.848053,31.662859 308.361115,32.961121 
	C312.463196,36.480942 316.342438,40.260483 320.655029,43.968521 
	C321.000000,44.750000 321.000000,45.500000 321.000000,46.624996 
	C318.382782,44.888149 315.642548,42.909439 313.177887,40.632427 
	C309.712738,37.431072 306.452179,34.008263 303.057587,30.345802 
z"/>
<path fill="#F6F6F6" opacity="1.000000" stroke="none" 
	d="
M274.007324,257.001923 
	C273.678162,256.910706 273.413177,256.726990 273.061157,255.905304 
	C272.249115,254.248627 271.588257,253.137375 271.235229,251.987015 
	C272.012299,251.384140 272.481537,250.820358 273.334717,250.207794 
	C274.490448,250.188187 275.262299,250.217361 276.034149,250.246552 
	C278.001068,252.935043 279.967987,255.623520 281.967468,258.656006 
	C280.285645,259.000000 278.571289,259.000000 276.373047,258.687714 
	C275.261871,257.917572 274.634613,257.459747 274.007324,257.001923 
z"/>
<path fill="#ECECEC" opacity="1.000000" stroke="none" 
	d="
M34.976173,10.024624 
	C34.197170,11.353337 33.418167,12.682052 31.956379,15.175364 
	C27.556202,10.193632 23.806339,5.948163 20.028240,1.351347 
	C20.750000,1.000000 21.500000,1.000000 22.656635,1.345674 
	C26.185848,5.681930 28.633787,10.636947 34.976173,10.024624 
z"/>
<path fill="#F6F6F6" opacity="1.000000" stroke="none" 
	d="
M46.992668,9.967670 
	C48.972012,7.209909 50.951355,4.452147 52.965347,1.347193 
	C54.388889,1.000000 55.777779,1.000000 57.551361,1.345057 
	C55.414665,4.485651 52.993557,7.385171 50.290359,9.992192 
	C49.724926,10.537509 48.119076,10.004023 46.992668,9.967670 
z"/>
<path fill="#F6F6F6" opacity="1.000000" stroke="none" 
	d="
M34.841358,9.719587 
	C28.633787,10.636947 26.185848,5.681930 23.031635,1.345674 
	C24.388889,1.000000 25.777779,1.000000 27.583334,1.000000 
	C30.235514,3.804850 32.471027,6.609701 34.841358,9.719587 
z"/>
<path fill="#ECECEC" opacity="1.000000" stroke="none" 
	d="
M46.731697,10.191435 
	C48.119076,10.004023 49.724926,10.537509 50.290359,9.992192 
	C52.993557,7.385171 55.414665,4.485651 57.968025,1.345057 
	C58.750000,1.000000 59.500000,1.000000 60.625000,1.000000 
	C57.313286,5.138500 53.944103,9.639514 49.806721,13.263502 
	C47.718800,15.092340 45.733688,13.604585 46.731697,10.191435 
z"/>
<path fill="#F6F6F6" opacity="1.000000" stroke="none" 
	d="
M286.571533,0.999999 
	C288.331360,3.423051 289.662689,5.846104 290.615234,8.633030 
	C285.289978,8.488432 282.882904,5.046929 281.000000,1.000000 
	C282.714355,1.000000 284.428711,1.000000 286.571533,0.999999 
z"/>
<path fill="#ECECEC" opacity="1.000000" stroke="none" 
	d="
M317.625000,1.000000 
	C314.400238,5.236239 310.800476,9.472478 307.200745,13.708717 
	C306.616211,13.406478 306.031708,13.104239 305.447174,12.802000 
	C305.447174,11.356688 305.447174,9.911378 305.924561,8.484399 
	C311.355591,8.394178 313.119965,4.630809 315.000000,1.000000 
	C315.750000,1.000000 316.500000,1.000000 317.625000,1.000000 
z"/>
<path fill="#F6F6F6" opacity="1.000000" stroke="none" 
	d="
M313.494751,259.000000 
	C315.436554,256.353882 317.873108,253.707748 320.654846,251.030807 
	C321.000000,253.582458 321.000000,256.164917 321.000000,259.000000 
	C318.666077,259.000000 316.327789,259.000000 313.494751,259.000000 
z"/>
<path fill="#ECECEC" opacity="1.000000" stroke="none" 
	d="
M280.625000,1.000000 
	C282.882904,5.046929 285.289978,8.488432 290.618225,8.998184 
	C290.366547,12.210119 288.624542,12.961768 286.283997,10.674372 
	C283.384857,7.841040 280.787415,4.698983 278.029846,1.345147 
	C278.750000,1.000000 279.500000,1.000000 280.625000,1.000000 
z"/>
<path fill="#F6F6F6" opacity="1.000000" stroke="none" 
	d="
M314.583344,1.000000 
	C313.119965,4.630809 311.355591,8.394178 306.197571,8.235012 
	C307.306244,5.874741 308.619263,3.782190 309.966125,1.344819 
	C311.388885,1.000000 312.777802,1.000000 314.583344,1.000000 
z"/>
<path fill="#ECECEC" opacity="1.000000" stroke="none" 
	d="
M61.374996,259.000000 
	C63.304752,256.103668 65.609512,253.207336 67.914276,250.311005 
	C68.392357,250.705276 68.870445,251.099533 69.348526,251.493805 
	C67.587654,253.766647 65.826782,256.039490 64.032959,258.656189 
	C63.250000,259.000000 62.500000,259.000000 61.374996,259.000000 
z"/>
<path fill="#CCCCCC" opacity="1.000000" stroke="none" 
	d="
M274.033630,257.334808 
	C274.634613,257.459747 275.261871,257.917572 275.944580,258.687714 
	C275.555542,259.000000 275.111115,259.000000 274.333313,259.000000 
	C274.019958,258.555908 274.039948,258.111786 274.033630,257.334808 
z"/>
<path fill="#FF7208" opacity="1.000000" stroke="none" 
	d="
M118.035194,160.833588 
	C96.709114,155.666428 85.432571,131.653809 94.774055,110.918846 
	C95.719528,108.820206 96.886513,106.821358 98.375664,105.000198 
	C99.165855,106.492241 99.531097,107.760277 99.954796,109.382370 
	C105.318405,122.009766 115.463570,125.971909 128.253906,126.220795 
	C137.035370,126.698868 145.473053,126.938301 153.888626,127.633057 
	C153.938919,133.058258 154.011337,138.028152 153.981842,143.333252 
	C153.971527,144.120651 154.063141,144.572815 154.065186,145.385651 
	C154.033951,146.481979 154.092285,147.217621 154.028595,148.314972 
	C153.790558,150.199509 153.674545,151.722351 153.165253,153.165634 
	C148.217163,151.736847 142.269196,156.227798 140.569763,162.069656 
	C138.445053,162.191772 136.739334,162.227112 135.044617,161.881927 
	C136.206848,158.738983 136.318436,156.363205 133.134964,155.358932 
	C129.929703,157.689270 126.961700,159.847092 123.993698,162.004913 
	C123.253639,161.991287 122.513588,161.977661 121.365021,161.545166 
	C119.982727,161.028732 119.008965,160.931152 118.035194,160.833588 
z"/>
<path fill="#FF7208" opacity="1.000000" stroke="none" 
	d="
M238.203186,145.049011 
	C238.203171,145.049011 237.901047,145.301910 237.576630,145.625305 
	C236.893433,146.646194 236.534637,147.343689 236.175842,148.041199 
	C233.617050,150.560593 231.058243,153.079987 227.937500,155.816589 
	C226.727295,156.551498 226.079041,157.069214 225.430786,157.586914 
	C224.496841,158.061600 223.562927,158.536301 221.970703,159.098450 
	C218.565628,160.212891 215.818817,161.239853 213.072006,162.266815 
	C212.001450,162.295715 210.930878,162.324615 209.026947,162.318207 
	C199.125687,162.199463 190.057770,162.116043 180.989868,162.032608 
	C180.935394,160.971146 180.880920,159.909698 180.887573,158.015198 
	C181.080307,154.124023 181.211914,151.065887 181.710220,147.986969 
	C182.725571,146.318314 183.374222,144.670456 184.396072,143.059189 
	C185.854095,143.380859 187.297318,144.249008 187.957474,143.843231 
	C190.055664,142.553528 191.973221,140.893707 193.663452,139.097382 
	C193.922256,138.822327 192.611282,137.070190 191.869003,135.706253 
	C189.454391,132.521301 187.197098,129.631302 185.384995,126.704117 
	C187.269928,126.435905 188.709656,126.204880 190.403610,126.084198 
	C190.838791,126.157326 191.019760,126.120117 191.351318,126.263779 
	C191.501923,126.444641 191.963623,126.357063 192.272919,126.537369 
	C193.045227,126.834724 193.508209,126.951759 193.981186,127.434631 
	C195.157715,129.142227 196.324249,130.483978 197.490799,131.825729 
	C198.663757,130.220551 199.836700,128.615356 201.383499,126.931351 
	C203.453552,126.565407 205.149734,126.278282 207.292709,125.997139 
	C212.235718,125.124100 216.972763,124.860954 221.170898,123.219513 
	C227.236954,120.847733 232.428528,117.011940 234.337540,109.777939 
	C235.206070,108.137016 235.793610,106.735672 236.381134,105.334328 
	C237.251587,106.663574 238.122055,107.992828 239.117035,109.932678 
	C239.742188,111.163757 240.242813,111.784233 240.743439,112.404724 
	C240.792053,112.765732 240.840652,113.126740 240.976318,114.054817 
	C241.434677,115.399178 241.805969,116.176468 242.177261,116.953766 
	C242.229752,118.019363 242.282227,119.084969 242.355438,120.978104 
	C242.418213,125.233086 242.460251,128.660538 242.502289,132.087982 
	C242.356842,133.135284 242.211411,134.182602 241.828827,135.830521 
	C241.320938,137.656235 241.050217,138.881332 240.779480,140.106430 
	C240.270859,140.859070 239.762238,141.611725 239.001282,142.895706 
	C238.567032,143.967712 238.385101,144.508362 238.203186,145.049011 
z"/>
<path fill="#0C0C0C" opacity="1.000000" stroke="none" 
	d="
M105.687607,248.052902 
	C105.672218,238.310120 105.656837,228.567352 105.664345,218.077301 
	C105.580223,216.912384 105.473206,216.494720 105.366196,216.077072 
	C105.366196,211.275543 105.366196,206.473999 105.366196,201.554321 
	C111.139557,200.253281 115.535606,200.496735 119.252129,205.596237 
	C124.423157,212.691513 130.371094,219.218735 135.924698,226.039413 
	C136.610596,226.881821 136.917877,228.032516 137.400589,229.040375 
	C137.897675,228.677582 138.394760,228.314804 138.891846,227.952026 
	C138.891846,219.226288 138.891846,210.500549 138.891846,201.351288 
	C142.820694,201.351288 146.359650,201.351288 150.138824,201.351288 
	C150.138824,217.058243 150.138824,232.793747 150.138824,248.630386 
	C144.699707,249.924271 140.434708,249.375137 136.877869,244.557953 
	C131.466171,237.228638 125.489204,230.316681 119.426041,222.580719 
	C118.465767,221.544449 117.831779,221.154938 117.197800,220.765442 
	C117.117378,221.838043 117.036949,222.910660 116.956520,223.983276 
	C116.956520,232.247360 116.956520,240.511429 116.956520,249.156540 
	C113.473145,249.156540 110.681778,249.156540 107.280655,248.924133 
	C106.343140,248.478806 106.015373,248.265854 105.687607,248.052902 
z"/>
<path fill="#0D0D0D" opacity="1.000000" stroke="none" 
	d="
M87.164749,202.405334 
	C90.983398,204.320480 94.207275,206.725342 94.788536,212.111786 
	C94.256096,215.504410 93.547646,218.236206 92.839195,220.968002 
	C92.613480,221.225296 92.387764,221.482574 91.739700,221.880966 
	C88.695541,224.473404 90.491455,225.108444 92.766396,225.546539 
	C93.823357,226.816376 94.880310,228.086227 96.015671,229.952637 
	C96.499474,231.016769 96.904884,231.484314 97.310287,231.951874 
	C97.928543,241.379593 94.809517,246.134277 86.108109,247.983398 
	C84.617622,248.367111 83.818108,248.742737 83.018585,249.118347 
	C74.613281,249.133133 66.207405,249.199677 57.803257,249.108170 
	C56.508247,249.094086 55.221153,248.353592 53.972038,247.076584 
	C54.071220,231.179001 54.128765,216.153900 54.186306,201.128784 
	C63.146671,201.074493 72.107040,201.020187 81.796036,201.182709 
	C84.071365,201.734802 85.618057,202.070068 87.164749,202.405334 
M84.267311,230.705032 
	C84.267311,230.705032 84.251717,230.642593 83.898346,229.998703 
	C79.535065,229.433624 75.184799,228.560196 70.805466,228.375366 
	C64.150703,228.094498 64.007317,228.302338 64.256577,235.147888 
	C64.324852,237.022964 65.426605,240.443100 66.120461,240.460190 
	C71.267937,240.586975 76.432152,240.033936 82.227585,239.662659 
	C82.640152,239.567398 83.052727,239.472137 84.175865,239.267548 
	C84.792389,237.848953 85.408913,236.430359 86.114624,234.349670 
	C86.047630,233.912064 85.980637,233.474442 86.087730,232.425842 
	C85.499763,231.862503 84.911789,231.299164 84.267311,230.705032 
M64.428810,212.826462 
	C64.428810,215.232529 64.428810,217.638596 64.428810,220.270782 
	C69.713142,220.270782 74.325119,220.601151 78.866203,220.175415 
	C83.179939,219.771011 85.198448,214.817352 82.707863,211.664246 
	C80.652733,209.062393 67.568367,207.856323 64.952827,210.110962 
	C64.549606,210.458542 64.599403,211.331650 64.428810,212.826462 
z"/>
<path fill="#0B0B0B" opacity="1.000000" stroke="none" 
	d="
M266.992981,248.022064 
	C266.132660,247.501343 265.272308,246.980606 264.210388,245.857697 
	C263.169952,240.188263 259.021790,236.360092 253.986145,236.005997 
	C253.651321,235.901733 253.434586,235.681335 253.245911,234.839951 
	C252.750977,233.562408 252.346069,232.789719 251.941162,232.017014 
	C251.872574,230.942474 251.803970,229.867950 251.690979,228.006500 
	C251.596848,225.462112 251.547119,223.704651 251.497391,221.947189 
	C251.636703,220.886566 251.776001,219.825943 252.123596,218.134277 
	C252.577423,216.672562 252.822937,215.841888 253.068451,215.011230 
	C263.710815,197.521194 284.515137,194.975311 298.050812,208.961151 
	C304.858521,215.995285 305.553833,234.325043 297.624542,241.333023 
	C296.508850,242.319077 295.505005,243.431686 293.915161,244.717361 
	C292.928650,245.339996 292.476379,245.730972 292.024109,246.121979 
	C290.571747,246.723923 289.119415,247.325851 287.070312,248.055420 
	C285.995911,248.521179 285.518250,248.859299 285.040588,249.197418 
	C283.313507,249.250000 281.586426,249.302597 279.006165,249.283630 
	C274.432983,248.815414 270.712982,248.418732 266.992981,248.022064 
M292.202820,222.784210 
	C291.324463,215.257782 286.055145,210.109528 278.512604,209.408524 
	C272.573669,208.856567 265.092072,213.787979 263.288208,219.443542 
	C261.115845,226.254456 263.760681,234.865570 269.395050,238.005463 
	C274.432831,240.812912 279.776031,240.989487 285.027344,238.288162 
	C291.029968,235.200378 292.621643,229.919983 292.202820,222.784210 
z"/>
<path fill="#0E0E0E" opacity="1.000000" stroke="none" 
	d="
M171.406952,239.934082 
	C175.064804,240.128662 178.441437,240.764160 181.543045,240.105194 
	C183.277710,239.736664 185.371277,237.391174 185.743591,235.610458 
	C185.978134,234.488525 183.591736,232.093689 181.922241,231.437775 
	C177.342743,229.638596 172.423248,228.714005 167.817993,226.969025 
	C161.082260,224.416809 158.357315,220.426117 158.579956,214.438538 
	C158.785797,208.902603 163.164124,202.489868 169.206436,201.507080 
	C177.944702,200.085754 187.035583,198.937286 195.554367,204.642441 
	C194.308899,207.260391 193.146759,209.703201 192.267059,211.552338 
	C186.843460,210.656677 182.037369,209.734879 177.190887,209.145035 
	C175.834961,208.980011 174.013367,209.395004 173.024109,210.255356 
	C171.677277,211.426682 170.202454,213.257980 170.152481,214.849289 
	C170.114822,216.048767 172.005707,217.890991 173.427307,218.440689 
	C177.120880,219.868835 181.012985,220.802200 184.854721,221.824631 
	C193.362823,224.088943 197.100601,227.697556 197.242767,233.913177 
	C197.419876,241.656784 193.837921,246.824890 185.342789,248.678787 
	C177.868286,250.309967 170.133301,250.125900 162.766251,247.228302 
	C158.720474,245.637024 156.541443,243.407135 159.929672,239.152023 
	C160.503510,238.431366 160.729095,237.433380 161.181641,236.414825 
	C164.616440,237.609604 167.813599,238.721710 171.406952,239.934082 
z"/>
<path fill="#FF730A" opacity="1.000000" stroke="none" 
	d="
M134.730530,31.968561 
	C141.009659,13.178002 166.284424,4.522486 184.498993,14.932298 
	C191.597916,18.989412 197.070633,24.550262 199.849518,32.552795 
	C193.958069,33.302963 188.539291,33.868305 183.113113,33.951450 
	C172.680862,34.111313 162.237534,34.224346 151.812424,33.908062 
	C146.104095,33.734875 140.423584,32.645046 134.730530,31.968561 
z"/>
<path fill="#0F0F0F" opacity="1.000000" stroke="none" 
	d="
M227.899948,210.508789 
	C218.755920,211.477448 215.125076,214.384399 213.583252,221.971115 
	C212.271225,228.427170 215.146927,235.171127 221.266006,238.316483 
	C226.547791,241.031448 232.095932,240.972107 237.249313,237.537949 
	C238.453461,236.735519 239.500565,235.697433 240.960892,234.484619 
	C243.010391,236.892075 244.895813,239.106812 247.036163,241.620987 
	C244.724518,245.887283 240.055206,248.096970 235.344635,248.951477 
	C215.947617,252.470184 200.569763,241.726746 202.232300,221.816101 
	C202.954056,213.172180 207.922958,206.835022 216.216766,202.624908 
	C217.540466,202.002213 218.271469,201.505524 219.404297,201.031952 
	C220.868347,200.928467 221.930573,200.801849 223.435806,200.782837 
	C226.610733,200.789734 229.342651,200.688995 232.074585,200.588272 
	C233.445526,200.712799 234.816467,200.837341 236.771500,201.198227 
	C237.905258,201.616928 238.454926,201.799286 239.004593,201.981644 
	C239.206131,202.274078 239.482742,202.445007 240.271027,202.745148 
	C241.476379,203.311096 242.245148,203.626297 243.013916,203.941498 
	C244.099701,204.908829 245.185486,205.876144 246.572723,207.298523 
	C247.009949,208.187180 247.145752,208.620743 247.281555,209.054321 
	C245.685181,210.634521 244.088821,212.214706 241.903000,213.991592 
	C240.554245,214.101242 239.794952,214.014221 239.035645,213.927185 
	C237.014847,212.880524 234.994049,211.833847 232.576294,210.840271 
	C232.179321,210.893372 232.255478,210.886368 232.143433,210.633301 
	C231.699982,210.290451 231.368591,210.200684 230.707596,210.012436 
	C229.551971,210.112228 228.725952,210.310516 227.899948,210.508789 
z"/>
<path fill="#FF6803" opacity="1.000000" stroke="none" 
	d="
M134.501938,32.215279 
	C140.423584,32.645046 146.104095,33.734875 151.812424,33.908062 
	C162.237534,34.224346 172.680862,34.111313 183.113113,33.951450 
	C188.539291,33.868305 193.958069,33.302963 199.834625,32.925209 
	C201.875580,35.686943 203.462112,38.478897 204.753754,41.859917 
	C202.697525,43.630718 200.947601,45.820419 199.173096,45.840515 
	C178.091354,46.079243 157.004654,46.097015 135.923508,45.833405 
	C133.858307,45.807583 131.821259,43.529598 129.771149,42.296989 
	C131.271881,39.018658 132.772614,35.740326 134.501938,32.215279 
z"/>
<path fill="#FF5E04" opacity="1.000000" stroke="none" 
	d="
M129.458710,42.487019 
	C131.821259,43.529598 133.858307,45.807583 135.923508,45.833405 
	C157.004654,46.097015 178.091354,46.079243 199.173096,45.840515 
	C200.947601,45.820419 202.697525,43.630718 204.737091,42.216461 
	C207.143097,46.056416 209.270874,50.128891 210.969177,54.626873 
	C207.557266,55.701488 204.586792,56.835773 201.590088,56.909950 
	C192.090500,57.145096 182.581116,56.984371 172.797333,56.758484 
	C170.926331,53.660912 169.333527,50.781570 167.534424,47.529327 
	C166.305161,49.012779 165.484665,50.002926 164.153870,50.995499 
	C155.057968,50.998520 146.462265,51.242702 137.891357,50.887985 
	C134.100784,50.731102 130.360428,49.360928 126.597275,48.541550 
	C127.446945,46.586716 128.296616,44.631882 129.458710,42.487019 
z"/>
<path fill="#0B0B0B" opacity="1.000000" stroke="none" 
	d="
M42.118881,242.697678 
	C42.075840,249.554016 42.075840,249.554016 31.887486,248.927673 
	C31.887486,233.119507 31.887486,217.285645 31.887486,201.200562 
	C35.219074,201.200562 38.455433,201.200562 42.118191,201.200562 
	C42.118191,215.061295 42.118191,228.648209 42.118881,242.697678 
z"/>
<path fill="#FF4404" opacity="1.000000" stroke="none" 
	d="
M111.863747,77.928017 
	C111.932068,77.484322 112.000389,77.040619 112.579819,76.217339 
	C113.305260,75.041756 113.519577,74.245750 113.733894,73.449753 
	C115.106476,70.738571 116.479065,68.027382 118.324081,65.511993 
	C119.962601,69.267334 122.449806,70.294891 126.068924,70.049347 
	C136.009918,69.374870 145.967392,68.942955 155.852844,68.794609 
	C153.555130,73.123947 151.322891,77.073730 148.846283,81.150604 
	C148.444931,81.601112 148.287949,81.924530 148.132843,82.210503 
	C148.134720,82.173058 148.179413,82.233597 147.744308,82.162537 
	C137.900848,81.727440 128.478821,81.552071 119.093369,80.871941 
	C116.625343,80.693085 114.270538,78.951805 111.863747,77.928017 
z"/>
<path fill="#FF5004" opacity="1.000000" stroke="none" 
	d="
M155.918335,68.415047 
	C145.967392,68.942955 136.009918,69.374870 126.068924,70.049347 
	C122.449806,70.294891 119.962601,69.267334 118.609207,65.266205 
	C119.911194,61.596176 121.400497,58.367725 123.500198,55.133698 
	C125.431015,56.410454 126.802689,58.849571 128.063843,58.793713 
	C139.023132,58.308273 150.178238,60.951622 160.998291,57.370857 
	C159.348373,61.303650 157.633347,64.859344 155.918335,68.415047 
z"/>
<path fill="#FF5004" opacity="1.000000" stroke="none" 
	d="
M173.075516,56.976711 
	C182.581116,56.984371 192.090500,57.145096 201.590088,56.909950 
	C204.586792,56.835773 207.557266,55.701488 210.957138,55.011017 
	C212.058060,56.191017 212.741577,57.412392 213.273895,59.366920 
	C213.847153,66.495079 213.389969,66.986778 206.632370,66.997620 
	C201.154877,67.006401 195.671234,66.838493 190.201584,67.045746 
	C184.983292,67.243469 180.029739,66.941025 175.763428,62.802605 
	C174.673904,60.732731 173.874710,58.854721 173.075516,56.976711 
z"/>
<path fill="#FF4004" opacity="1.000000" stroke="none" 
	d="
M219.451416,71.183296 
	C220.665588,73.433937 221.879776,75.684570 222.971283,78.656487 
	C220.963806,80.584717 219.095108,82.800652 217.191513,82.831055 
	C206.673874,82.999031 196.147736,82.634193 185.636108,82.433083 
	C185.647690,82.414192 185.657364,82.371750 185.754852,81.994675 
	C185.234421,80.744713 184.616486,79.871826 183.690201,78.838005 
	C182.593277,76.783813 181.804718,74.890549 181.438232,73.007751 
	C193.084213,73.313675 204.307434,73.700851 215.532867,73.780296 
	C216.832855,73.789505 218.144943,72.090393 219.451416,71.183296 
z"/>
<path fill="#FCF7F5" opacity="1.000000" stroke="none" 
	d="
M135.033600,162.262451 
	C136.739334,162.227112 138.445053,162.191772 141.014038,162.203156 
	C144.320801,162.413834 146.764282,162.577805 149.413101,162.842957 
	C150.078369,162.965866 150.538315,162.987579 151.242447,162.983826 
	C151.486633,162.958344 151.960663,163.086395 152.002502,163.428925 
	C153.721481,166.509598 155.398636,169.247772 156.906830,172.291504 
	C154.747620,175.473618 152.742203,175.540207 150.362335,172.909256 
	C148.094177,170.401794 145.571869,168.124207 143.161301,165.745544 
	C142.521622,165.921005 141.881943,166.096451 141.242279,166.271896 
	C141.159882,168.187195 141.077499,170.102493 141.047821,172.351685 
	C143.406235,175.464157 145.711945,178.242722 147.859726,181.326172 
	C145.671829,184.578110 143.804688,184.270767 141.265717,181.909027 
	C138.245499,179.099625 136.302917,174.140503 130.564575,175.562241 
	C130.270462,175.635117 128.962387,173.057800 128.729538,171.616913 
	C128.322464,169.097961 129.124451,166.023529 125.024780,166.030548 
	C125.015411,165.259872 125.006042,164.489197 125.437836,163.256104 
	C128.930527,162.616592 131.982071,162.439529 135.033600,162.262451 
z"/>
<path fill="#FF3501" opacity="1.000000" stroke="none" 
	d="
M111.572479,78.061172 
	C114.270538,78.951805 116.625343,80.693085 119.093369,80.871941 
	C128.478821,81.552071 137.900848,81.727440 147.787674,82.526443 
	C147.535919,84.648621 146.805710,86.335815 145.682678,88.057220 
	C141.947830,88.727615 138.621780,89.786514 135.260498,89.913597 
	C127.846230,90.193886 120.414207,90.004501 112.677483,89.850174 
	C111.185661,87.675453 110.005783,85.657318 108.825912,83.639191 
	C108.825905,83.639191 108.795448,83.270233 109.208168,83.119644 
	C109.800949,82.330238 109.981018,81.691406 110.161087,81.052574 
	C110.534462,80.099831 110.907837,79.147079 111.572479,78.061172 
z"/>
<path fill="#F6F6F6" opacity="1.000000" stroke="none" 
	d="
M227.507980,85.239365 
	C233.803925,79.158508 240.187302,73.165131 246.377441,66.978416 
	C258.913116,54.449669 271.307556,41.779369 283.882355,29.290405 
	C284.976166,28.204062 286.973633,28.027599 288.743225,28.033775 
	C288.297180,29.584700 287.792480,30.663212 287.001648,31.456427 
	C269.499390,49.011536 251.949677,66.519325 234.462860,84.089722 
	C232.763855,85.796860 231.416168,87.853638 229.760696,89.785378 
	C229.615997,89.822647 229.326523,89.896835 229.080032,89.671394 
	C228.636780,89.341637 228.440033,89.237328 228.240967,89.110611 
	C228.238663,89.088203 228.236008,89.042694 228.180145,88.658783 
	C227.918854,87.263039 227.713425,86.251198 227.507980,85.239365 
z"/>
<path fill="#FF1605" opacity="1.000000" stroke="none" 
	d="
M236.327454,105.019440 
	C235.793610,106.735672 235.206070,108.137016 233.863342,109.770554 
	C226.801926,110.001045 220.491013,109.868881 214.193008,110.095512 
	C212.740280,110.147789 211.331787,111.429077 209.537064,112.114365 
	C207.146500,112.950180 205.121826,113.816452 202.726303,114.841385 
	C202.405731,114.576698 201.477554,113.810303 200.421387,112.725006 
	C199.359619,110.964798 198.425842,109.523491 197.454132,107.699280 
	C196.562210,105.224037 195.708237,103.131691 195.251221,101.071060 
	C198.299500,101.734955 200.935455,102.822235 203.605087,102.912323 
	C211.030151,103.162910 218.475525,103.172379 225.899170,102.901787 
	C228.373749,102.811600 230.806885,101.585136 233.548523,100.891029 
	C234.220718,100.943665 234.603348,100.983376 234.985977,101.023094 
	C235.415253,102.250252 235.844513,103.477402 236.327454,105.019440 
z"/>
<path fill="#FF4904" opacity="1.000000" stroke="none" 
	d="
M219.490677,70.843613 
	C218.144943,72.090393 216.832855,73.789505 215.532867,73.780296 
	C204.307434,73.700851 193.084213,73.313675 181.250534,72.708450 
	C179.111740,69.263939 177.582748,66.129204 176.053757,62.994469 
	C180.029739,66.941025 184.983292,67.243469 190.201584,67.045746 
	C195.671234,66.838493 201.154877,67.006401 206.632370,66.997620 
	C213.389969,66.986778 213.847153,66.495079 213.195526,59.670067 
	C215.355576,62.994678 217.442749,66.749306 219.490677,70.843613 
z"/>
<path fill="#FF5B02" opacity="1.000000" stroke="none" 
	d="
M160.933197,56.993763 
	C150.178238,60.951622 139.023132,58.308273 128.063843,58.793713 
	C126.802689,58.849571 125.431015,56.410454 123.751289,54.920677 
	C123.802727,53.650295 124.213448,52.587360 125.193146,51.200047 
	C126.045921,50.123314 126.329712,49.370964 126.613510,48.618614 
	C126.613503,48.618610 126.622627,48.578373 126.609955,48.559959 
	C130.360428,49.360928 134.100784,50.731102 137.891357,50.887985 
	C146.462265,51.242702 155.057968,50.998520 164.120422,51.369286 
	C163.375916,53.491680 162.154556,55.242722 160.933197,56.993763 
z"/>
<path fill="#F6F6F6" opacity="1.000000" stroke="none" 
	d="
M49.970375,27.019554 
	C51.330803,27.862970 52.912712,28.483654 54.018467,29.583187 
	C70.835052,46.305126 87.601013,63.078087 104.332153,79.885574 
	C105.463600,81.022186 106.222839,82.529327 107.247993,84.491745 
	C107.266289,85.448570 107.122406,85.744011 106.566803,85.962730 
	C101.695320,81.663994 97.065155,77.509987 92.655823,73.133492 
	C79.008163,59.587486 65.400574,46.000023 51.924213,32.284424 
	C50.726959,31.065918 50.596367,28.799355 49.970375,27.019554 
z"/>
<path fill="#FF3704" opacity="1.000000" stroke="none" 
	d="
M227.205231,85.109520 
	C227.713425,86.251198 227.918854,87.263039 227.784348,88.627533 
	C226.655884,88.999054 225.867340,89.017914 224.630890,89.023529 
	C212.458084,89.005463 200.733200,89.000648 188.710861,88.827263 
	C187.483780,86.589790 186.554138,84.520882 185.624512,82.451973 
	C196.147736,82.634193 206.673874,82.999031 217.191513,82.831055 
	C219.095108,82.800652 220.963806,80.584717 222.998779,79.007835 
	C224.400101,80.751831 225.651291,82.865753 227.205231,85.109520 
z"/>
<path fill="#FF2102" opacity="1.000000" stroke="none" 
	d="
M233.258972,100.878113 
	C230.806885,101.585136 228.373749,102.811600 225.899170,102.901787 
	C218.475525,103.172379 211.030151,103.162910 203.605087,102.912323 
	C200.935455,102.822235 198.299500,101.734955 194.947571,100.876305 
	C193.636887,99.075455 193.026779,97.501068 192.930725,95.947449 
	C201.629639,96.312965 209.814514,96.657707 218.051819,97.344955 
	C219.288513,97.716812 221.044220,98.260422 221.559555,97.687790 
	C223.974426,95.004440 226.047882,92.013855 228.243286,89.133026 
	C228.440033,89.237328 228.636780,89.341637 228.999084,90.020187 
	C229.810471,92.305237 230.456299,94.016045 231.099792,96.070389 
	C231.486511,96.915085 231.875580,97.416252 232.264633,97.917419 
	C232.264633,97.917419 232.673203,97.922852 232.866882,98.312759 
	C233.126678,99.427818 233.192825,100.152962 233.258972,100.878113 
z"/>
<path fill="#ECE7E6" opacity="1.000000" stroke="none" 
	d="
M49.589897,27.027964 
	C50.596367,28.799355 50.726959,31.065918 51.924213,32.284424 
	C65.400574,46.000023 79.008163,59.587486 92.655823,73.133492 
	C97.065155,77.509987 101.695320,81.663994 106.622025,86.277298 
	C107.003235,87.059464 106.986900,87.484131 106.737015,87.948036 
	C106.240173,88.189903 105.942894,88.278473 105.611626,88.252983 
	C103.850342,87.106155 101.813789,86.230888 100.371742,84.769127 
	C89.777756,74.030312 79.343239,63.134373 68.775314,52.369576 
	C62.174683,45.645977 55.450089,39.043369 48.736794,32.431480 
	C46.631378,30.357872 45.292988,28.508736 49.589897,27.027964 
z"/>
<path fill="#ECE7E6" opacity="1.000000" stroke="none" 
	d="
M229.905396,89.748108 
	C231.416168,87.853638 232.763855,85.796860 234.462860,84.089722 
	C251.949677,66.519325 269.499390,49.011536 287.001648,31.456427 
	C287.792480,30.663212 288.297180,29.584700 288.970520,28.287361 
	C292.671509,29.578892 290.261200,31.188818 288.878296,32.588074 
	C281.750946,39.799625 274.551788,46.940125 267.395508,54.123177 
	C255.665405,65.897118 243.949036,77.684738 231.727783,89.740173 
	C230.787582,89.925201 230.346481,89.836647 229.905396,89.748108 
z"/>
<path fill="#FF1301" opacity="1.000000" stroke="none" 
	d="
M99.896332,109.028320 
	C99.531097,107.760277 99.165855,106.492241 98.681358,104.820816 
	C99.449211,102.608414 100.336327,100.799408 101.623543,99.273262 
	C102.564987,102.378899 104.359734,103.143417 107.075424,103.045586 
	C111.708603,102.878685 116.352280,103.003029 121.261185,103.190063 
	C123.388695,105.567574 125.246574,107.760048 126.625626,109.970078 
	C117.396645,109.667870 108.646492,109.348099 99.896332,109.028320 
z"/>
<path fill="#F6F6F6" opacity="1.000000" stroke="none" 
	d="
M222.992813,200.675217 
	C221.930573,200.801849 220.868347,200.928467 219.279968,200.717209 
	C218.336227,199.667969 218.043945,198.832840 217.482178,198.263809 
	C209.240814,189.916199 200.996735,181.570343 192.641617,173.337433 
	C191.838470,172.546036 190.291595,172.509399 189.089966,172.122391 
	C189.785767,170.761765 190.481567,169.401123 191.580368,167.252396 
	C202.605896,178.145584 213.037918,188.452362 223.656372,199.123718 
	C223.559494,199.883942 223.276154,200.279587 222.992813,200.675217 
z"/>
<path fill="#FCFCFC" opacity="1.000000" stroke="none" 
	d="
M154.150604,147.953278 
	C154.092285,147.217621 154.033951,146.481979 154.419785,145.380463 
	C156.322937,144.453583 157.781921,143.892532 159.358017,143.286469 
	C160.625366,145.595947 161.849655,147.826935 163.109070,150.417694 
	C164.761978,153.522705 166.379761,156.267944 167.997559,159.013199 
	C167.998505,159.752151 167.999451,160.491089 167.695618,161.763123 
	C165.119934,165.050262 162.713852,165.513504 159.665100,163.263657 
	C158.116547,162.120895 156.064636,161.660233 154.207794,160.445648 
	C154.176422,158.510651 154.177536,157.021210 154.624725,155.655396 
	C156.333267,155.664017 157.595749,155.548996 160.368530,155.296371 
	C157.668457,152.107697 155.909531,150.030487 154.150604,147.953278 
z"/>
<path fill="#ECE7E6" opacity="1.000000" stroke="none" 
	d="
M125.024704,166.450134 
	C129.124451,166.023529 128.322464,169.097961 128.729538,171.616913 
	C128.962387,173.057800 130.270462,175.635117 130.564575,175.562241 
	C136.302917,174.140503 138.245499,179.099625 141.265717,181.909027 
	C143.804688,184.270767 145.671829,184.578110 148.117233,181.211334 
	C149.029465,180.525513 149.526245,180.259430 150.023041,179.993332 
	C150.921402,183.862427 148.487549,186.286530 145.591843,187.314880 
	C144.230698,187.798279 141.686417,185.809814 140.056046,184.478760 
	C137.457932,182.357666 135.769241,179.209854 131.244797,180.554672 
	C130.085831,180.899155 127.070862,177.743881 126.210861,175.659210 
	C125.120453,173.016083 125.359108,169.824677 125.024704,166.450134 
z"/>
<path fill="#FF3B2D" opacity="1.000000" stroke="none" 
	d="
M127.104454,109.952522 
	C125.246574,107.760048 123.388695,105.567574 121.114899,102.889030 
	C118.122231,99.940353 115.545479,97.477753 112.836945,94.712357 
	C110.793633,92.242638 108.882095,90.075714 106.970566,87.908791 
	C106.986900,87.484131 107.003235,87.059464 106.964363,86.320236 
	C107.122406,85.744011 107.266289,85.448570 107.332748,84.872284 
	C107.646278,84.388008 107.967857,84.150795 108.557678,83.776382 
	C110.005783,85.657318 111.185661,87.675453 112.824524,90.149338 
	C115.846245,93.074287 118.408981,95.543472 121.124146,98.308838 
	C125.642174,102.807785 130.007782,107.010559 134.358566,111.546890 
	C133.826782,112.828049 133.309830,113.775650 132.551422,114.411896 
	C130.574783,112.717857 128.839615,111.335190 127.104454,109.952522 
z"/>
<path fill="#FF2102" opacity="1.000000" stroke="none" 
	d="
M112.968719,95.015152 
	C115.545479,97.477753 118.122231,99.940353 120.845268,102.703995 
	C116.352280,103.003029 111.708603,102.878685 107.075424,103.045586 
	C104.359734,103.143417 102.564987,102.378899 101.959488,99.151634 
	C102.347404,97.252220 102.799469,95.757294 103.908005,94.252014 
	C107.365891,94.499489 110.167305,94.757324 112.968719,95.015152 
z"/>
<path fill="#F4DCD1" opacity="1.000000" stroke="none" 
	d="
M168.002197,158.640472 
	C166.379761,156.267944 164.761978,153.522705 163.427948,150.405182 
	C164.139145,150.028336 164.566574,150.023758 165.342682,150.178467 
	C175.425522,155.000031 179.047348,152.870865 179.050262,142.484650 
	C179.050400,141.986252 179.053116,141.487869 179.330109,140.993759 
	C179.973434,140.994186 180.341278,140.990341 180.824707,141.338043 
	C181.078720,142.161011 181.217163,142.632416 181.287689,143.508652 
	C181.261017,145.278244 181.302261,146.643005 181.343506,148.007751 
	C181.211914,151.065887 181.080307,154.124023 180.810303,157.624222 
	C177.587646,155.969025 169.748062,156.093719 168.002197,158.640472 
z"/>
<path fill="#B9B9B9" opacity="1.000000" stroke="none" 
	d="
M53.784916,201.152161 
	C54.128765,216.153900 54.071220,231.179001 53.852913,246.655792 
	C53.207947,246.015121 52.310539,244.925797 52.302483,243.829956 
	C52.205345,230.618683 52.214779,217.406296 52.289120,204.194717 
	C52.294792,203.186310 53.002266,202.181854 53.784916,201.152161 
z"/>
<path fill="#D7D7D7" opacity="1.000000" stroke="none" 
	d="
M189.142532,172.438324 
	C190.291595,172.509399 191.838470,172.546036 192.641617,173.337433 
	C200.996735,181.570343 209.240814,189.916199 217.482178,198.263809 
	C218.043945,198.832840 218.336227,199.667969 218.878143,200.694092 
	C218.271469,201.505524 217.540466,202.002213 216.473068,202.423920 
	C215.102341,200.396820 214.447769,198.075912 212.970154,196.554169 
	C205.159317,188.509995 197.141281,180.667007 189.142532,172.438324 
z"/>
<path fill="#EDE2DC" opacity="1.000000" stroke="none" 
	d="
M154.240295,160.891205 
	C156.064636,161.660233 158.116547,162.120895 159.665100,163.263657 
	C162.713852,165.513504 165.119934,165.050262 167.696625,162.132385 
	C167.751511,163.450150 167.959106,165.840378 167.163239,166.241989 
	C164.826324,167.421204 162.090668,167.810196 158.707947,168.726166 
	C158.695038,168.604034 158.835175,169.929825 158.662628,171.624496 
	C157.925232,171.990906 157.500504,171.988419 157.075790,171.985931 
	C155.398636,169.247772 153.721481,166.509598 152.233948,163.280838 
	C153.029144,162.157227 153.634720,161.524216 154.240295,160.891205 
z"/>
<path fill="#E5E5E5" opacity="1.000000" stroke="none" 
	d="
M156.906830,172.291504 
	C157.500504,171.988419 157.925232,171.990906 158.669006,171.992432 
	C156.907043,174.326141 154.826004,176.660828 152.240417,178.682938 
	C149.476227,176.034119 147.364029,173.516647 144.860657,171.479935 
	C144.173126,170.920532 142.315704,171.799088 140.995102,172.017792 
	C141.077499,170.102493 141.159882,168.187195 141.242279,166.271896 
	C141.881943,166.096451 142.521622,165.921005 143.161301,165.745544 
	C145.571869,168.124207 148.094177,170.401794 150.362335,172.909256 
	C152.742203,175.540207 154.747620,175.473618 156.906830,172.291504 
z"/>
<path fill="#FE853E" opacity="1.000000" stroke="none" 
	d="
M135.044617,161.881927 
	C131.982071,162.439529 128.930527,162.616592 125.441284,162.870728 
	C124.772858,162.734360 124.519867,162.551788 124.119148,162.202499 
	C126.961700,159.847092 129.929703,157.689270 133.134964,155.358932 
	C136.318436,156.363205 136.206848,158.738983 135.044617,161.881927 
z"/>
<path fill="#F4DCD1" opacity="1.000000" stroke="none" 
	d="
M181.066483,162.429871 
	C190.057770,162.116043 199.125687,162.199463 208.643921,162.444824 
	C208.615814,163.021240 208.139572,163.793961 207.658615,163.796890 
	C199.183090,163.848938 190.706894,163.818985 182.231384,163.745117 
	C181.865982,163.741928 181.505737,163.146606 181.066483,162.429871 
z"/>
<path fill="#F6F6F6" opacity="1.000000" stroke="none" 
	d="
M141.047821,172.351700 
	C142.315704,171.799088 144.173126,170.920532 144.860657,171.479935 
	C147.364029,173.516647 149.476227,176.034119 151.872284,178.680359 
	C151.518036,179.253525 151.027420,179.516708 150.279907,179.886612 
	C149.526245,180.259430 149.029465,180.525513 148.275162,180.906448 
	C145.711945,178.242722 143.406235,175.464157 141.047821,172.351700 
z"/>
<path fill="#FF2D05" opacity="1.000000" stroke="none" 
	d="
M112.836945,94.712357 
	C110.167305,94.757324 107.365891,94.499489 104.231049,94.094284 
	C104.439240,92.298332 104.980843,90.649750 105.567032,88.627075 
	C105.942894,88.278473 106.240173,88.189903 106.737015,87.948036 
	C108.882095,90.075714 110.793633,92.242638 112.836945,94.712357 
z"/>
<path fill="#252525" opacity="1.000000" stroke="none" 
	d="
M254.039642,236.332047 
	C259.021790,236.360092 263.169952,240.188263 263.999542,245.639420 
	C263.189697,245.754669 262.389099,245.486008 261.200562,244.755737 
	C258.866028,242.559021 256.919434,240.823914 254.972839,239.088791 
	C254.679611,238.278549 254.386383,237.468323 254.039642,236.332047 
z"/>
<path fill="#CCCCCC" opacity="1.000000" stroke="none" 
	d="
M267.015778,248.374603 
	C270.712982,248.418732 274.432983,248.815414 278.580627,249.356934 
	C278.226166,249.722275 277.444092,249.942764 276.348083,250.204910 
	C275.262299,250.217361 274.490448,250.188187 273.010193,250.189148 
	C271.843658,250.821579 271.385498,251.423843 270.927368,252.026108 
	C271.588257,253.137375 272.249115,254.248627 272.955627,255.683533 
	C271.013672,253.580490 269.026123,251.153824 267.015778,248.374603 
z"/>
<path fill="#E5E5E5" opacity="1.000000" stroke="none" 
	d="
M93.192398,220.946442 
	C93.547646,218.236206 94.256096,215.504410 95.037079,212.378906 
	C98.826889,215.662750 98.578178,217.084351 93.192398,220.946442 
z"/>
<path fill="#F4DCD1" opacity="1.000000" stroke="none" 
	d="
M242.843597,131.930542 
	C242.460251,128.660538 242.418213,125.233086 242.496658,121.353378 
	C242.806396,124.525108 242.995651,128.149094 242.843597,131.930542 
z"/>
<path fill="#ECECEC" opacity="1.000000" stroke="none" 
	d="
M104.974625,216.058502 
	C105.473206,216.494720 105.580223,216.912384 105.531113,217.624634 
	C103.189713,219.160614 101.004448,220.402008 98.819183,221.643417 
	C98.483963,221.256271 98.148735,220.869125 97.813515,220.481979 
	C100.070030,219.001297 102.326546,217.520630 104.974625,216.058502 
z"/>
<path fill="#D7D7D7" opacity="1.000000" stroke="none" 
	d="
M223.435806,200.782837 
	C223.276154,200.279587 223.559494,199.883942 223.960419,199.273193 
	C226.662338,199.332581 229.246658,199.607101 231.952789,200.234940 
	C229.342651,200.688995 226.610733,200.789734 223.435806,200.782837 
z"/>
<path fill="#E5E5E5" opacity="1.000000" stroke="none" 
	d="
M255.074524,239.407867 
	C256.919434,240.823914 258.866028,242.559021 260.885010,244.655975 
	C259.030304,243.254181 257.103271,241.490555 255.074524,239.407867 
z"/>
<path fill="#F4DCD1" opacity="1.000000" stroke="none" 
	d="
M213.325531,162.502823 
	C215.818817,161.239853 218.565628,160.212891 221.686142,159.237076 
	C219.232925,160.438431 216.405991,161.588623 213.325531,162.502823 
z"/>
<path fill="#E5E5E5" opacity="1.000000" stroke="none" 
	d="
M246.150635,227.353821 
	C247.765076,228.799301 249.054840,230.243958 250.344604,231.688629 
	C249.750763,232.086273 249.156937,232.483917 248.563110,232.881577 
	C247.650726,231.038727 246.738342,229.195862 246.150635,227.353821 
z"/>
<path fill="#F4DCD1" opacity="1.000000" stroke="none" 
	d="
M229.760681,89.785370 
	C230.346481,89.836647 230.787582,89.925201 231.563431,90.037247 
	C232.192413,91.853508 232.486633,93.646271 232.256439,95.661041 
	C231.522049,95.830978 231.312088,95.778915 231.102127,95.726860 
	C230.456299,94.016045 229.810471,92.305237 229.245575,90.245628 
	C229.326523,89.896835 229.615997,89.822647 229.760681,89.785370 
z"/>
<path fill="#E5E5E5" opacity="1.000000" stroke="none" 
	d="
M251.173004,222.051300 
	C251.547119,223.704651 251.596848,225.462112 251.515564,227.641144 
	C251.205887,226.093613 251.027252,224.124496 251.173004,222.051300 
z"/>
<path fill="#D7D7D7" opacity="1.000000" stroke="none" 
	d="
M228.034317,210.839081 
	C228.725952,210.310516 229.551971,210.112228 230.837677,210.231995 
	C231.616730,210.662140 231.936111,210.774246 232.255478,210.886368 
	C232.255478,210.886368 232.179321,210.893372 232.206497,210.866302 
	C231.985001,211.732849 231.736328,212.626480 231.330414,214.085220 
	C230.014679,212.871796 229.091690,212.020584 228.034317,210.839081 
z"/>
<path fill="#B9B9B9" opacity="1.000000" stroke="none" 
	d="
M87.039963,202.120819 
	C85.618057,202.070068 84.071365,201.734802 82.265030,201.176239 
	C83.641975,201.247406 85.278580,201.541855 87.039963,202.120819 
z"/>
<path fill="#E5E5E5" opacity="1.000000" stroke="none" 
	d="
M241.922958,215.958359 
	C242.141357,217.113358 242.359741,218.268356 242.578140,219.423355 
	C242.226562,219.563553 241.875000,219.703751 241.523422,219.843948 
	C241.031540,218.791153 240.539658,217.738342 240.361923,216.329315 
	C241.091690,215.968170 241.507324,215.963257 241.922958,215.958359 
z"/>
<path fill="#F4DCD1" opacity="1.000000" stroke="none" 
	d="
M241.031372,139.980576 
	C241.050217,138.881332 241.320938,137.656235 241.846954,136.228058 
	C241.829224,137.301544 241.556244,138.578140 241.031372,139.980576 
z"/>
<path fill="#E5E5E5" opacity="1.000000" stroke="none" 
	d="
M92.723633,225.089722 
	C90.491455,225.108444 88.695541,224.473404 91.619705,222.003403 
	C92.174995,222.867462 92.427933,223.750168 92.723633,225.089722 
z"/>
<path fill="#F4DCD1" opacity="1.000000" stroke="none" 
	d="
M242.408234,116.753296 
	C241.805969,116.176468 241.434677,115.399178 241.118408,114.290756 
	C241.662048,114.824028 242.150635,115.688431 242.408234,116.753296 
z"/>
<path fill="#E5E5E5" opacity="1.000000" stroke="none" 
	d="
M251.675964,232.206360 
	C252.346069,232.789719 252.750977,233.562408 253.078949,234.667389 
	C252.471634,234.131699 251.941208,233.263702 251.675964,232.206360 
z"/>
<path fill="#F4DCD1" opacity="1.000000" stroke="none" 
	d="
M233.548523,100.891029 
	C233.192825,100.152962 233.126678,99.427818 233.069580,98.338150 
	C233.734116,98.754295 234.389587,99.534950 235.015533,100.669350 
	C234.603348,100.983376 234.220718,100.943665 233.548523,100.891029 
z"/>
<path fill="#B9B9B9" opacity="1.000000" stroke="none" 
	d="
M83.199181,249.361404 
	C83.818108,248.742737 84.617622,248.367111 85.751854,248.109222 
	C85.184296,248.686096 84.282036,249.145279 83.199181,249.361404 
z"/>
<path fill="#FE853E" opacity="1.000000" stroke="none" 
	d="
M118.241776,161.110931 
	C119.008965,160.931152 119.982727,161.028732 121.013657,161.422882 
	C120.196663,161.609070 119.322510,161.498688 118.241776,161.110931 
z"/>
<path fill="#E5E5E5" opacity="1.000000" stroke="none" 
	d="
M252.744919,215.040161 
	C252.822937,215.841888 252.577423,216.672562 252.083878,217.731598 
	C252.031036,216.996338 252.226212,216.032700 252.744919,215.040161 
z"/>
<path fill="#D7D7D7" opacity="1.000000" stroke="none" 
	d="
M241.985992,215.688431 
	C241.507324,215.963257 241.091690,215.968170 240.364624,215.970963 
	C239.701157,215.494965 239.349121,215.021072 239.016357,214.237183 
	C239.794952,214.014221 240.554245,214.101242 241.691147,214.254730 
	C242.062164,214.686951 242.055588,215.052734 241.985992,215.688431 
z"/>
<path fill="#B9B9B9" opacity="1.000000" stroke="none" 
	d="
M117.237755,223.807144 
	C117.036949,222.910660 117.117378,221.838043 117.197800,220.765442 
	C117.831779,221.154938 118.465767,221.544449 119.197937,222.337463 
	C118.703751,223.037659 118.111374,223.334335 117.237755,223.807144 
z"/>
<path fill="#FF3B2D" opacity="1.000000" stroke="none" 
	d="
M109.889511,81.197113 
	C109.981018,81.691406 109.800949,82.330238 109.337494,82.987213 
	C109.242043,82.450790 109.429985,81.896217 109.889511,81.197113 
z"/>
<path fill="#CCCCCC" opacity="1.000000" stroke="none" 
	d="
M285.187988,249.427124 
	C285.518250,248.859299 285.995911,248.521179 286.774292,248.235886 
	C286.495117,248.744766 285.915253,249.200790 285.187988,249.427124 
z"/>
<path fill="#B9B9B9" opacity="1.000000" stroke="none" 
	d="
M105.475266,248.194122 
	C106.015373,248.265854 106.343140,248.478806 106.821587,248.949051 
	C106.402489,248.916016 105.832710,248.625671 105.475266,248.194122 
z"/>
<path fill="#CCCCCC" opacity="1.000000" stroke="none" 
	d="
M292.194672,246.345337 
	C292.476379,245.730972 292.928650,245.339996 293.684204,244.956696 
	C293.446716,245.499161 292.905975,246.033936 292.194672,246.345337 
z"/>
<path fill="#FF3B2D" opacity="1.000000" stroke="none" 
	d="
M113.499496,73.646011 
	C113.519577,74.245750 113.305260,75.041756 112.772209,75.937424 
	C112.724014,75.305489 112.994553,74.573875 113.499496,73.646011 
z"/>
<path fill="#FF5E04" opacity="1.000000" stroke="none" 
	d="
M126.339203,48.751064 
	C126.329712,49.370964 126.045921,50.123314 125.422958,50.936832 
	C125.410828,50.293171 125.737862,49.588345 126.339203,48.751064 
z"/>
<path fill="#D7D7D7" opacity="1.000000" stroke="none" 
	d="
M247.575027,209.020233 
	C247.145752,208.620743 247.009949,208.187180 246.864456,207.412933 
	C247.192673,207.710220 247.530594,208.348190 247.575027,209.020233 
z"/>
<path fill="#F4DCD1" opacity="1.000000" stroke="none" 
	d="
M240.819092,112.073105 
	C240.242813,111.784233 239.742188,111.163757 239.272278,110.240211 
	C239.833572,110.538597 240.364166,111.140053 240.819092,112.073105 
z"/>
<path fill="#B9B9B9" opacity="1.000000" stroke="none" 
	d="
M97.518120,231.789337 
	C96.904884,231.484314 96.499474,231.016769 96.159729,230.231445 
	C96.725571,230.484711 97.225761,231.055756 97.518120,231.789337 
z"/>
<path fill="#F4DCD1" opacity="1.000000" stroke="none" 
	d="
M238.473846,145.026611 
	C238.385101,144.508362 238.567032,143.967712 238.974472,143.236603 
	C239.048172,143.698837 238.896347,144.351532 238.473846,145.026611 
z"/>
<path fill="#F4DCD1" opacity="1.000000" stroke="none" 
	d="
M236.507141,147.980865 
	C236.534637,147.343689 236.893433,146.646194 237.531082,145.816956 
	C237.486115,146.430328 237.162262,147.175446 236.507141,147.980865 
z"/>
<path fill="#F4DCD1" opacity="1.000000" stroke="none" 
	d="
M225.786652,157.691513 
	C226.079041,157.069214 226.727295,156.551498 227.693298,156.043976 
	C227.388199,156.634781 226.765350,157.215439 225.786652,157.691513 
z"/>
<path fill="#D7D7D7" opacity="1.000000" stroke="none" 
	d="
M239.001480,201.690125 
	C238.454926,201.799286 237.905258,201.616928 237.185822,201.178970 
	C237.676819,201.081772 238.337601,201.240173 239.001480,201.690125 
z"/>
<path fill="#D7D7D7" opacity="1.000000" stroke="none" 
	d="
M242.941101,203.573929 
	C242.245148,203.626297 241.476379,203.311096 240.520432,202.732025 
	C241.178253,202.714233 242.023254,202.960297 242.941101,203.573929 
z"/>
<path fill="#FF1605" opacity="1.000000" stroke="none" 
	d="
M231.099792,96.070389 
	C231.312088,95.778915 231.522049,95.830978 232.054260,95.921555 
	C232.318451,96.394310 232.260406,96.828545 232.233490,97.590103 
	C231.875580,97.416252 231.486511,96.915085 231.099792,96.070389 
z"/>
<path fill="#E5E5E5" opacity="1.000000" stroke="none" 
	d="
M95.539398,224.552429 
	C95.476456,224.590759 95.602341,224.514084 95.539398,224.552429 
z"/>
<path fill="#E5E5E5" opacity="1.000000" stroke="none" 
	d="
M103.526321,211.548981 
	C103.472343,211.580383 103.580292,211.517563 103.526321,211.548981 
z"/>
<path fill="#FDFDFD" opacity="1.000000" stroke="none" 
	d="
M271.235229,251.987015 
	C271.385498,251.423843 271.843658,250.821579 272.626282,250.237946 
	C272.481537,250.820358 272.012299,251.384140 271.235229,251.987015 
z"/>
<path fill="#FFFCFC" opacity="1.000000" stroke="none" 
	d="
M192.416687,95.926674 
	C193.026779,97.501068 193.636887,99.075455 194.550629,100.844589 
	C195.708237,103.131691 196.562210,105.224037 197.073181,107.645683 
	C194.144104,105.777519 192.119675,106.029282 189.703430,108.669563 
	C184.880081,113.940163 179.526489,118.724770 174.685684,123.980690 
	C173.275131,125.512222 172.859863,127.960449 171.623718,130.031891 
	C168.422546,131.903030 164.661850,133.125702 162.973190,135.704956 
	C160.633530,139.278549 157.922623,141.625107 154.083740,142.998032 
	C154.011337,138.028152 153.938919,133.058258 153.875092,127.244644 
	C150.153946,125.039574 146.424225,123.678238 142.388153,122.205086 
	C141.370102,120.716118 140.347076,117.947983 138.361069,116.619965 
	C135.539902,114.733482 135.633820,112.516014 136.040176,109.546738 
	C137.349030,106.777336 138.555313,104.342712 140.044525,101.787735 
	C140.419571,101.110130 140.511673,100.552872 140.696930,99.714905 
	C140.852127,99.247063 140.914200,99.059914 141.323578,98.758720 
	C143.139084,95.104118 144.607300,91.563568 146.075500,88.023010 
	C146.805710,86.335815 147.535919,84.648621 148.222778,82.597511 
	C148.179413,82.233597 148.134720,82.173058 148.413712,82.116898 
	C148.825348,81.714989 148.958008,81.369247 149.090668,81.023499 
	C151.322891,77.073730 153.555130,73.123947 155.852844,68.794609 
	C157.633347,64.859344 159.348373,61.303650 160.998291,57.370857 
	C162.154556,55.242722 163.375916,53.491680 164.630722,51.366852 
	C165.484665,50.002926 166.305161,49.012779 167.534424,47.529327 
	C169.333527,50.781570 170.926331,53.660912 172.797333,56.758484 
	C173.874710,58.854721 174.673904,60.732731 175.763428,62.802605 
	C177.582748,66.129204 179.111740,69.263939 180.828461,72.697975 
	C181.804718,74.890549 182.593277,76.783813 183.692413,79.177055 
	C184.554428,80.575279 185.105896,81.473518 185.657364,82.371750 
	C185.657364,82.371750 185.647690,82.414192 185.636108,82.433083 
	C186.554138,84.520882 187.483780,86.589790 188.710815,89.177917 
	C190.144379,91.773651 191.280533,93.850159 192.416687,95.926674 
z"/>
<path fill="#FF0401" opacity="1.000000" stroke="none" 
	d="
M126.625626,109.970078 
	C128.839615,111.335190 130.574783,112.717857 132.497375,114.748611 
	C132.407486,116.244537 132.130142,117.092384 131.642166,118.155350 
	C130.947311,119.232079 130.463074,120.093697 129.632690,121.058334 
	C128.827728,122.768288 128.368927,124.375221 127.910126,125.982155 
	C115.463570,125.971909 105.318405,122.009766 99.954788,109.382370 
	C108.646492,109.348099 117.396645,109.667870 126.625626,109.970078 
z"/>
<path fill="#F6E2DB" opacity="1.000000" stroke="none" 
	d="
M128.253906,126.220795 
	C128.368927,124.375221 128.827728,122.768288 129.649902,121.477989 
	C131.110367,125.485352 133.523300,126.076752 139.621231,123.481514 
	C136.752258,121.435059 134.302521,119.687645 131.852798,117.940239 
	C132.130142,117.092384 132.407486,116.244537 132.738861,115.059967 
	C133.309830,113.775650 133.826782,112.828049 134.573822,111.394836 
	C135.181824,110.566650 135.559708,110.224083 135.937607,109.881516 
	C135.633820,112.516014 135.539902,114.733482 138.361069,116.619965 
	C140.347076,117.947983 141.370102,120.716118 142.388153,122.205086 
	C146.424225,123.678238 150.153946,125.039574 153.897202,126.789322 
	C145.473053,126.938301 137.035370,126.698868 128.253906,126.220795 
z"/>
<path fill="#FE853E" opacity="1.000000" stroke="none" 
	d="
M154.207794,160.445648 
	C153.634720,161.524216 153.029144,162.157227 152.192123,162.938324 
	C151.960663,163.086395 151.486633,162.958344 151.191376,162.743652 
	C150.333344,162.599884 149.770554,162.670822 149.207779,162.741776 
	C146.764282,162.577805 144.320801,162.413834 141.433014,162.116364 
	C142.269196,156.227798 148.217163,151.736847 153.242828,153.353912 
	C153.868683,154.258408 154.023666,154.895096 154.178650,155.531769 
	C154.177536,157.021210 154.176422,158.510651 154.207794,160.445648 
z"/>
<path fill="#F1EBEB" opacity="1.000000" stroke="none" 
	d="
M153.981842,143.333252 
	C157.922623,141.625107 160.633530,139.278549 162.973190,135.704956 
	C164.661850,133.125702 168.422546,131.903030 171.632843,130.039978 
	C172.006607,130.004654 172.024429,130.018173 172.020844,130.338470 
	C172.024582,131.085449 172.031891,131.512100 171.684250,131.989746 
	C169.102432,133.606964 166.657547,134.940933 164.692200,136.785782 
	C160.000107,141.190216 162.739731,145.648224 164.994019,150.019165 
	C164.566574,150.023758 164.139145,150.028336 163.392822,150.045410 
	C161.849655,147.826935 160.625366,145.595947 159.358017,143.286469 
	C157.781921,143.892532 156.322937,144.453583 154.509338,145.019806 
	C154.063141,144.572815 153.971527,144.120651 153.981842,143.333252 
z"/>
<path fill="#EDE2DC" opacity="1.000000" stroke="none" 
	d="
M154.624725,155.655396 
	C154.023666,154.895096 153.868683,154.258408 153.636139,153.433472 
	C153.674545,151.722351 153.790558,150.199509 154.028595,148.314972 
	C155.909531,150.030487 157.668457,152.107697 160.368530,155.296371 
	C157.595749,155.548996 156.333267,155.664017 154.624725,155.655396 
z"/>
<path fill="#FF0401" opacity="1.000000" stroke="none" 
	d="
M209.902954,112.144806 
	C211.331787,111.429077 212.740280,110.147789 214.193008,110.095512 
	C220.491013,109.868881 226.801926,110.001045 233.582336,110.010132 
	C232.428528,117.011940 227.236954,120.847733 221.170898,123.219513 
	C216.972763,124.860954 212.235718,125.124100 207.209671,125.711006 
	C206.480270,124.858192 206.280685,124.297493 206.112961,123.374519 
	C206.512802,122.371948 206.725586,121.396400 207.272720,121.143143 
	C212.868134,118.553085 213.295471,117.196648 209.902954,112.144806 
z"/>
<path fill="#FCFCFC" opacity="1.000000" stroke="none" 
	d="
M191.200729,126.082916 
	C191.019760,126.120117 190.838791,126.157326 190.356934,125.795753 
	C188.557785,123.234299 187.234177,119.343132 184.591278,124.915588 
	C183.128830,125.593338 182.032913,126.237366 180.955444,126.919235 
	C180.973892,126.957085 180.890579,126.945000 180.539734,127.028397 
	C179.804230,128.452164 179.419571,129.792526 178.707245,131.078491 
	C177.256241,130.350403 176.132935,129.676697 175.011139,128.630096 
	C175.684097,126.997017 176.115952,125.506187 177.068497,124.516571 
	C181.197510,120.226875 185.408188,116.008400 189.752274,111.938110 
	C190.881516,110.880035 192.600067,110.450897 194.047928,109.732880 
	C193.997971,111.233185 194.336548,112.886749 193.817703,114.202103 
	C192.715942,116.995262 192.948761,118.956459 196.286804,120.127785 
	C197.031128,120.823586 197.514053,121.401405 197.997818,122.357819 
	C198.004517,123.493065 198.010391,124.249725 197.608063,125.010284 
	C195.378677,125.276932 193.557526,125.539665 191.643967,125.843437 
	C191.551559,125.884468 191.200729,126.082916 191.200729,126.082916 
z"/>
<path fill="#FE853E" opacity="1.000000" stroke="none" 
	d="
M184.939804,126.741302 
	C187.197098,129.631302 189.454391,132.521301 191.822266,136.049408 
	C190.684250,138.185883 189.435684,139.684250 188.132416,141.248245 
	C185.413391,138.795151 183.303864,136.891937 180.988846,134.944611 
	C180.783340,134.900467 180.366226,134.850174 180.400955,134.538864 
	C180.449219,133.810242 180.462738,133.392929 180.662415,132.660370 
	C180.862564,130.545074 180.876572,128.745041 180.890579,126.945000 
	C180.890579,126.945000 180.973892,126.957085 181.401764,126.880005 
	C182.693100,126.561974 183.556564,126.321037 184.552979,126.243042 
	C184.685928,126.405975 184.939804,126.741302 184.939804,126.741302 
z"/>
<path fill="#FF730A" opacity="1.000000" stroke="none" 
	d="
M181.194366,134.988739 
	C183.303864,136.891937 185.413391,138.795151 188.132416,141.248245 
	C189.435684,139.684250 190.684250,138.185883 191.979584,136.344360 
	C192.611282,137.070190 193.922256,138.822327 193.663452,139.097382 
	C191.973221,140.893707 190.055664,142.553528 187.957474,143.843231 
	C187.297318,144.249008 185.854095,143.380859 184.386505,143.049774 
	C184.003738,143.003738 183.987030,142.987183 183.975250,142.629944 
	C183.038757,141.495041 182.114059,140.717377 181.084274,139.623169 
	C180.859406,138.879776 180.739609,138.452911 180.743591,137.658295 
	C180.976364,136.523270 181.085358,135.756012 181.194366,134.988739 
z"/>
<path fill="#F4DCD1" opacity="1.000000" stroke="none" 
	d="
M191.736374,125.802406 
	C193.557526,125.539665 195.378677,125.276932 197.944855,125.011192 
	C199.139404,124.989578 199.588928,124.970963 200.421753,124.961197 
	C202.200500,124.653999 203.595993,124.337952 205.257065,123.924583 
	C205.708786,123.797112 205.894928,123.766960 206.081085,123.736801 
	C206.280685,124.297493 206.480270,124.858192 206.762894,125.705017 
	C205.149734,126.278282 203.453552,126.565407 200.950684,126.837288 
	C198.086395,126.904305 196.028809,126.986557 193.971207,127.068802 
	C193.508209,126.951759 193.045227,126.834724 192.222992,126.396278 
	C191.863770,126.074875 191.736374,125.802406 191.736374,125.802406 
z"/>
<path fill="#FE853E" opacity="1.000000" stroke="none" 
	d="
M193.981186,127.434639 
	C196.028809,126.986557 198.086395,126.904305 200.576813,126.916107 
	C199.836700,128.615356 198.663757,130.220551 197.490799,131.825729 
	C196.324249,130.483978 195.157715,129.142227 193.981186,127.434639 
z"/>
<path fill="#F6E2DB" opacity="1.000000" stroke="none" 
	d="
M185.384995,126.704117 
	C184.939804,126.741302 184.685928,126.405975 184.652679,126.119904 
	C184.732254,125.516510 184.845047,125.199196 184.957840,124.881882 
	C187.234177,119.343132 188.557785,123.234299 190.102722,125.685410 
	C188.709656,126.204880 187.269928,126.435905 185.384995,126.704117 
z"/>
<path fill="#FF730A" opacity="1.000000" stroke="none" 
	d="
M181.710205,147.986969 
	C181.302261,146.643005 181.261017,145.278244 181.615753,143.490524 
	C182.670181,143.040756 183.328613,143.013962 183.987030,142.987183 
	C183.987030,142.987183 184.003738,143.003738 184.013306,143.013153 
	C183.374222,144.670456 182.725571,146.318314 181.710205,147.986969 
z"/>
<path fill="#F6E2DB" opacity="1.000000" stroke="none" 
	d="
M191.643967,125.843437 
	C191.736374,125.802406 191.863770,126.074875 191.913696,126.215973 
	C191.963623,126.357063 191.501923,126.444641 191.351318,126.263779 
	C191.200729,126.082916 191.551559,125.884468 191.643967,125.843437 
z"/>
<path fill="#E5E5E5" opacity="1.000000" stroke="none" 
	d="
M64.434250,212.394089 
	C64.599403,211.331650 64.549606,210.458542 64.952827,210.110962 
	C67.568367,207.856323 80.652733,209.062393 82.707863,211.664246 
	C85.198448,214.817352 83.179939,219.771011 78.866203,220.175415 
	C74.325119,220.601151 69.713142,220.270782 64.428810,220.270782 
	C64.428810,217.638596 64.428810,215.232529 64.434250,212.394089 
z"/>
<path fill="#FDFDFD" opacity="1.000000" stroke="none" 
	d="
M83.465294,239.376877 
	C83.052727,239.472137 82.640152,239.567398 81.438568,239.473663 
	C75.921776,239.284653 71.194008,239.284653 66.643967,239.284653 
	C64.904144,230.063751 65.040131,229.807480 72.980423,229.917801 
	C76.740150,229.970016 80.494781,230.389511 84.251717,230.642593 
	C84.251717,230.642593 84.267311,230.705032 84.223755,231.040070 
	C84.758018,231.929016 85.335831,232.482925 85.913635,233.036835 
	C85.980637,233.474442 86.047630,233.912064 85.741020,234.746094 
	C82.618431,235.603912 82.228798,237.125153 83.465294,239.376877 
z"/>
<path fill="#B9B9B9" opacity="1.000000" stroke="none" 
	d="
M84.075027,230.320648 
	C80.494781,230.389511 76.740150,229.970016 72.980423,229.917801 
	C65.040131,229.807480 64.904144,230.063751 66.643967,239.284653 
	C71.194008,239.284653 75.921776,239.284653 81.120331,239.489532 
	C76.432152,240.033936 71.267937,240.586975 66.120461,240.460190 
	C65.426605,240.443100 64.324852,237.022964 64.256577,235.147888 
	C64.007317,228.302338 64.150703,228.094498 70.805466,228.375366 
	C75.184799,228.560196 79.535065,229.433624 84.075027,230.320648 
z"/>
<path fill="#B9B9B9" opacity="1.000000" stroke="none" 
	d="
M83.820580,239.322205 
	C82.228798,237.125153 82.618431,235.603912 85.696426,235.077148 
	C85.408913,236.430359 84.792389,237.848953 83.820580,239.322205 
z"/>
<path fill="#B9B9B9" opacity="1.000000" stroke="none" 
	d="
M86.000687,232.731339 
	C85.335831,232.482925 84.758018,231.929016 84.252014,231.055466 
	C84.911789,231.299164 85.499763,231.862503 86.000687,232.731339 
z"/>
<path fill="#F6F6F6" opacity="1.000000" stroke="none" 
	d="
M292.207642,223.226227 
	C292.621643,229.919983 291.029968,235.200378 285.027344,238.288162 
	C279.776031,240.989487 274.432831,240.812912 269.395050,238.005463 
	C263.760681,234.865570 261.115845,226.254456 263.288208,219.443542 
	C265.092072,213.787979 272.573669,208.856567 278.512604,209.408524 
	C286.055145,210.109528 291.324463,215.257782 292.207642,223.226227 
z"/>
<path fill="#FDFDFD" opacity="1.000000" stroke="none" 
	d="
M232.143433,210.633301 
	C231.936111,210.774246 231.616730,210.662140 231.167282,210.330475 
	C231.368591,210.200684 231.699982,210.290451 232.143433,210.633301 
z"/>
<path fill="#FF3501" opacity="1.000000" stroke="none" 
	d="
M148.846283,81.150604 
	C148.958008,81.369247 148.825348,81.714989 148.411835,82.154343 
	C148.287949,81.924530 148.444931,81.601112 148.846283,81.150604 
z"/>
<path fill="#FF3704" opacity="1.000000" stroke="none" 
	d="
M185.754852,81.994675 
	C185.105896,81.473518 184.554428,80.575279 184.000763,79.337990 
	C184.616486,79.871826 185.234421,80.744713 185.754852,81.994675 
z"/>
<path fill="#EDE2DC" opacity="1.000000" stroke="none" 
	d="
M149.413101,162.842957 
	C149.770554,162.670822 150.333344,162.599884 150.947189,162.769119 
	C150.538315,162.987579 150.078369,162.965866 149.413101,162.842957 
z"/>
<path fill="#FF2D05" opacity="1.000000" stroke="none" 
	d="
M145.682678,88.057220 
	C144.607300,91.563568 143.139084,95.104118 141.219528,98.374794 
	C134.169357,98.074158 127.570541,98.043404 120.971725,98.012650 
	C118.408981,95.543472 115.846245,93.074287 113.136467,90.305923 
	C120.414207,90.004501 127.846230,90.193886 135.260498,89.913597 
	C138.621780,89.786514 141.947830,88.727615 145.682678,88.057220 
z"/>
<path fill="#FF3B2D" opacity="1.000000" stroke="none" 
	d="
M228.240967,89.110611 
	C226.047882,92.013855 223.974426,95.004440 221.559555,97.687790 
	C221.044220,98.260422 219.288513,97.716812 218.249207,97.075966 
	C220.622375,93.988579 222.850601,91.512680 225.078812,89.036781 
	C225.867340,89.017914 226.655884,88.999054 227.840210,89.011444 
	C228.236008,89.042694 228.238663,89.088203 228.240967,89.110611 
z"/>
<path fill="#F1EBEB" opacity="1.000000" stroke="none" 
	d="
M196.025421,120.009811 
	C192.948761,118.956459 192.715942,116.995262 193.817703,114.202103 
	C194.336548,112.886749 193.997971,111.233185 194.047928,109.732880 
	C192.600067,110.450897 190.881516,110.880035 189.752274,111.938110 
	C185.408188,116.008400 181.197510,120.226875 177.068497,124.516571 
	C176.115952,125.506187 175.684097,126.997017 174.692352,128.655670 
	C173.589508,129.375488 172.806976,129.696823 172.024429,130.018173 
	C172.024429,130.018173 172.006607,130.004654 171.997482,129.996567 
	C172.859863,127.960449 173.275131,125.512222 174.685684,123.980690 
	C179.526489,118.724770 184.880081,113.940163 189.703430,108.669563 
	C192.119675,106.029282 194.144104,105.777519 197.111115,108.028580 
	C198.425842,109.523491 199.359619,110.964798 200.266953,112.697754 
	C200.240509,112.989410 199.927353,112.972519 199.583771,113.039886 
	C198.168610,115.408112 197.097015,117.708961 196.025421,120.009811 
z"/>
<path fill="#FF3B2D" opacity="1.000000" stroke="none" 
	d="
M206.112961,123.374519 
	C205.894928,123.766960 205.708786,123.797112 205.001099,123.687500 
	C202.962128,120.022659 201.444748,116.497589 199.927353,112.972519 
	C199.927353,112.972519 200.240509,112.989410 200.394928,113.016663 
	C201.477554,113.810303 202.405731,114.576698 202.726303,114.841385 
	C205.121826,113.816452 207.146500,112.950180 209.537064,112.114365 
	C213.295471,117.196648 212.868134,118.553085 207.272720,121.143143 
	C206.725586,121.396400 206.512802,122.371948 206.112961,123.374519 
z"/>
<path fill="#FF2D05" opacity="1.000000" stroke="none" 
	d="
M224.630890,89.023537 
	C222.850601,91.512680 220.622375,93.988579 218.196777,96.733459 
	C209.814514,96.657707 201.629639,96.312965 192.930725,95.947449 
	C191.280533,93.850159 190.144379,91.773651 189.008270,89.346481 
	C200.733200,89.000648 212.458084,89.005463 224.630890,89.023537 
z"/>
<path fill="#FF2102" opacity="1.000000" stroke="none" 
	d="
M121.124146,98.308830 
	C127.570541,98.043404 134.169357,98.074158 140.872223,98.488838 
	C140.914200,99.059914 140.852127,99.247063 140.442093,99.751312 
	C139.983276,100.681641 139.872437,101.294861 139.761597,101.908089 
	C138.555313,104.342712 137.349030,106.777336 136.040176,109.546738 
	C135.559708,110.224083 135.181824,110.566650 134.588654,111.061279 
	C130.007782,107.010559 125.642174,102.807785 121.124146,98.308830 
z"/>
<path fill="#FCFCFC" opacity="1.000000" stroke="none" 
	d="
M180.476273,132.975616 
	C180.462738,133.392929 180.449219,133.810242 180.078247,134.723999 
	C179.491623,136.146866 179.262451,137.073273 178.732727,138.146179 
	C176.425400,140.242035 174.318466,142.102875 172.471039,144.193130 
	C171.894058,144.845963 172.017776,146.118088 171.820740,147.106735 
	C172.993454,147.093018 174.727234,147.562866 175.233826,146.975067 
	C176.763290,145.200378 177.816055,143.014847 179.054626,140.989471 
	C179.053116,141.487869 179.050400,141.986252 179.050262,142.484650 
	C179.047348,152.870865 175.425522,155.000031 165.342682,150.178467 
	C162.739731,145.648224 160.000107,141.190216 164.692200,136.785782 
	C166.657547,134.940933 169.102432,133.606964 172.079544,132.004608 
	C174.890594,132.296860 176.951401,132.625244 179.377869,132.982483 
	C179.987762,132.999466 180.232010,132.987549 180.476273,132.975616 
M169.194443,142.778732 
	C170.581406,141.303329 171.968384,139.827927 174.200638,137.453339 
	C167.658463,137.877243 166.553528,139.355225 169.194443,142.778732 
z"/>
<path fill="#F6E2DB" opacity="1.000000" stroke="none" 
	d="
M179.330109,140.993759 
	C177.816055,143.014847 176.763290,145.200378 175.233826,146.975067 
	C174.727234,147.562866 172.993454,147.093018 171.820740,147.106735 
	C172.017776,146.118088 171.894058,144.845963 172.471039,144.193130 
	C174.318466,142.102875 176.425400,140.242035 178.996887,138.149200 
	C179.914322,138.012527 180.267059,138.019287 180.619812,138.026047 
	C180.739609,138.452911 180.859406,138.879776 180.956085,139.881256 
	C180.858353,140.632736 180.783737,140.809616 180.709137,140.986481 
	C180.341278,140.990341 179.973434,140.994186 179.330109,140.993759 
z"/>
<path fill="#FE853E" opacity="1.000000" stroke="none" 
	d="
M180.824707,141.338043 
	C180.783737,140.809616 180.858353,140.632736 181.061157,140.197784 
	C182.114059,140.717377 183.038757,141.495041 183.975250,142.629944 
	C183.328613,143.013962 182.670181,143.040756 181.683685,143.085678 
	C181.217163,142.632416 181.078720,142.161011 180.824707,141.338043 
z"/>
<path fill="#FF2D05" opacity="1.000000" stroke="none" 
	d="
M140.044525,101.787735 
	C139.872437,101.294861 139.983276,100.681641 140.348938,100.032013 
	C140.511673,100.552872 140.419571,101.110130 140.044525,101.787735 
z"/>
<path fill="#FCF7F5" opacity="1.000000" stroke="none" 
	d="
M131.642166,118.155350 
	C134.302521,119.687645 136.752258,121.435059 139.621231,123.481514 
	C133.523300,126.076752 131.110367,125.485352 129.996063,121.374969 
	C130.463074,120.093697 130.947311,119.232079 131.642166,118.155350 
z"/>
<path fill="#F6E2DB" opacity="1.000000" stroke="none" 
	d="
M179.012207,132.953613 
	C176.951401,132.625244 174.890594,132.296860 172.434494,131.953629 
	C172.031891,131.512100 172.024582,131.085449 172.020844,130.338470 
	C172.806976,129.696823 173.589508,129.375488 174.690826,129.028564 
	C176.132935,129.676697 177.256241,130.350403 178.700592,131.380402 
	C179.018478,132.142319 179.015335,132.547974 179.012207,132.953613 
z"/>
<path fill="#FDFDFD" opacity="1.000000" stroke="none" 
	d="
M199.583771,113.039886 
	C201.444748,116.497589 202.962128,120.022659 204.735504,123.784821 
	C203.595993,124.337952 202.200500,124.653999 200.382675,124.645554 
	C199.305878,123.540451 198.651443,122.759842 197.996994,121.979233 
	C197.514053,121.401405 197.031128,120.823586 196.286804,120.127785 
	C197.097015,117.708961 198.168610,115.408112 199.583771,113.039886 
z"/>
<path fill="#F4DCD1" opacity="1.000000" stroke="none" 
	d="
M179.377869,132.982483 
	C179.015335,132.547974 179.018478,132.142319 179.028275,131.434784 
	C179.419571,129.792526 179.804230,128.452164 180.539734,127.028397 
	C180.876572,128.745041 180.862564,130.545074 180.662415,132.660370 
	C180.232010,132.987549 179.987762,132.999466 179.377869,132.982483 
z"/>
<path fill="#F4DCD1" opacity="1.000000" stroke="none" 
	d="
M184.591278,124.915588 
	C184.845047,125.199196 184.732254,125.516510 184.519745,125.956963 
	C183.556564,126.321037 182.693100,126.561974 181.383331,126.842155 
	C182.032913,126.237366 183.128830,125.593338 184.591278,124.915588 
z"/>
<path fill="#F1EBEB" opacity="1.000000" stroke="none" 
	d="
M197.997818,122.357819 
	C198.651443,122.759842 199.305878,123.540451 199.999390,124.636703 
	C199.588928,124.970963 199.139404,124.989578 198.353073,125.007294 
	C198.010391,124.249725 198.004517,123.493065 197.997818,122.357819 
z"/>
<path fill="#F4DCD1" opacity="1.000000" stroke="none" 
	d="
M180.743591,137.658295 
	C180.267059,138.019287 179.914322,138.012527 179.297424,138.002731 
	C179.262451,137.073273 179.491623,136.146866 180.043518,135.035309 
	C180.366226,134.850174 180.783340,134.900467 180.988861,134.944611 
	C181.085358,135.756012 180.976364,136.523270 180.743591,137.658295 
z"/>
<path fill="#ECECEC" opacity="1.000000" stroke="none" 
	d="
M168.836899,142.819183 
	C166.553528,139.355225 167.658463,137.877243 174.200638,137.453339 
	C171.968384,139.827927 170.581406,141.303329 168.836899,142.819183 
z"/>
</svg>