<svg version="1.1" id="Layer_1" xmlns="http://www.w3.org/2000/svg" xmlns:xlink="http://www.w3.org/1999/xlink" x="0px" y="0px"
	 width="100%" viewBox="0 0 199 160" enable-background="new 0 0 199 160" xml:space="preserve">
<path fill="none" opacity="1.000000" stroke="#000000" stroke-linecap="round" stroke-linejoin="round" stroke-width="22.000000"
	d="
M86.000000,88.000000 
	C84.166664,88.000000 82.249352,87.651810 80.516808,88.069695 
	C76.424301,89.056808 73.408173,88.395203 70.909149,84.559189 
	C68.384407,80.683708 68.564575,76.806175 70.092125,73.037338 
	C72.045929,68.216850 74.647636,63.657032 77.003792,59.001919 
	C82.658737,47.829319 88.396561,36.698090 93.969696,25.484940 
	C96.283516,20.829538 99.603958,18.310074 105.001343,18.446878 
	C110.286034,18.580828 112.913399,21.711807 115.026978,25.986662 
	C122.624916,41.353973 130.139999,56.767788 138.084244,71.955933 
	C141.869446,79.192642 139.525085,86.361061 131.512375,89.531273 
	C127.109871,91.273109 122.833336,93.333336 118.500000,95.250000 
"/>
<path fill="none" opacity="1.000000" stroke="#000000" stroke-linecap="round" stroke-linejoin="round" stroke-width="6.000000"
	d="
M119.000000,131.500000 
	C118.831772,130.666977 119.329872,129.781494 118.517410,128.982300 
	C115.285583,125.803276 105.002228,127.440605 102.999985,131.500000 
	C101.430321,134.682388 103.167557,137.639603 107.505684,138.981628 
	C109.472168,139.589966 111.546188,139.865158 113.489441,140.530823 
	C116.597832,141.595642 120.015488,142.668030 119.452248,146.993790 
	C119.013229,150.365509 116.565445,151.971176 111.494469,152.440216 
	C108.055771,152.758286 104.667496,151.995865 101.500000,150.500000 
"/>
<path fill="none" opacity="1.000000" stroke="#000000" stroke-linecap="round" stroke-linejoin="round" stroke-width="7.000000"
	d="
M150.500000,131.500000 
	C149.712204,127.925987 146.589813,127.630890 143.998779,127.599174 
	C136.438629,127.506630 133.268768,129.333893 130.541412,134.521774 
	C128.262100,138.857407 129.517090,145.071091 133.000000,148.500000 
	C136.686493,152.129318 143.473618,153.231934 148.494492,150.987671 
	C149.035416,150.745880 149.500000,150.333328 150.000000,150.000000 
"/>
<path fill="none" opacity="1.000000" stroke="#000000" stroke-linecap="round" stroke-linejoin="round" stroke-width="6.000000"
	d="
M52.500000,139.500000 
	C53.000000,138.833328 53.584953,138.213959 53.986576,137.492523 
	C57.227066,131.671646 55.884762,128.557709 49.974312,127.671288 
	C46.024178,127.078857 41.710869,126.666473 37.500000,128.713989 
	C37.500000,134.997864 37.586510,141.500748 37.449970,147.998947 
	C37.406101,150.086792 38.252022,151.927200 39.994892,151.862457 
	C43.844650,151.719467 47.633038,153.232742 51.510567,152.034180 
	C54.654934,151.062225 57.672745,150.124283 57.484314,146.000717 
	C57.350441,143.071198 53.467861,139.649887 49.998959,139.530182 
	C46.170185,139.398041 42.333332,139.500000 38.500000,139.500000 
"/>
<path fill="none" opacity="1.000000" stroke="#000000" stroke-linecap="round" stroke-linejoin="round" stroke-width="8.000000"
	d="
M23.500000,128.500000 
	C23.500000,136.166672 23.500000,143.833328 23.500000,151.500000 
"/>
<path fill="none" opacity="1.000000" stroke="#000000" stroke-linecap="round" stroke-linejoin="round" stroke-width="8.000000"
	d="
M69.750000,128.500000 
	C70.961411,130.623276 70.931564,132.528915 70.159576,135.048889 
	C68.532585,140.359772 69.789192,146.003708 69.500000,151.500000 
"/>
<path fill="none" opacity="1.000000" stroke="#000000" stroke-linecap="round" stroke-linejoin="round" stroke-width="8.000000"
	d="
M90.500000,128.500000 
	C89.966080,134.497177 91.745705,140.656677 89.049751,146.522858 
	C88.249084,148.265045 89.540611,149.906509 90.250000,151.500000 
"/>
<path fill="none" opacity="1.000000" stroke="#000000" stroke-linecap="round" stroke-linejoin="round" stroke-width="7.000000"
	d="
M88.000000,146.500000 
	C82.995041,145.357361 80.924385,140.887970 78.081024,137.433319 
	C76.183922,135.128342 74.200302,133.202667 71.500000,132.000000 
"/>
<path fill="none" opacity="1.000000" stroke="#000000" stroke-linecap="round" stroke-linejoin="round" stroke-width="3.000000"
	d="
M87.500000,87.750000 
	C85.182449,87.945137 86.549652,89.626610 86.567009,90.498665 
	C86.636971,94.014885 88.821785,97.897690 84.500000,100.500000 
"/>
<path fill="none" opacity="1.000000" stroke="#000000" stroke-linecap="round" stroke-linejoin="round" stroke-width="7.000000"
	d="
M171.500000,127.500000 
	C164.544128,129.051682 160.769409,132.826416 160.500015,138.500000 
	C160.182266,145.191864 162.628540,149.907715 168.026474,151.404541 
	C172.875534,152.749176 177.882919,152.783203 181.991852,148.991165 
	C185.920181,145.365799 186.262787,140.819489 184.980606,136.005173 
	C183.562881,130.681885 179.542267,128.412796 174.496445,127.520058 
	C173.688416,127.377098 172.833328,127.500000 172.000000,127.500000 
"/>
</svg>